<svg width="348" height="348" viewBox="0 0 348 348" fill="none" xmlns="http://www.w3.org/2000/svg">
<rect width="348" height="348" fill="#A6CC2E"/>
<path d="M105.543 237.755C102.319 237.755 99.3265 236.989 96.5637 235.458C93.9545 233.927 91.8825 231.861 90.3476 229.258C88.8128 226.503 88.0453 223.518 88.0453 220.303C88.0453 217.088 88.8128 214.179 90.3476 211.577C91.8825 208.821 93.9545 206.678 96.5637 205.147C99.3265 203.617 102.319 202.851 105.543 202.851C108.766 202.851 111.682 203.617 114.291 205.147C117.054 206.678 119.203 208.821 120.738 211.577C122.272 214.179 123.04 217.088 123.04 220.303C123.04 223.518 122.272 226.503 120.738 229.258C119.203 231.861 117.054 233.927 114.291 235.458C111.682 236.989 108.766 237.755 105.543 237.755ZM105.543 214.792C102.319 214.792 99.3265 214.026 96.5637 212.495C93.9545 210.965 91.8825 208.898 90.3476 206.296C88.8128 203.54 88.0453 200.555 88.0453 197.34C88.0453 194.125 88.8128 191.217 90.3476 188.614C91.8825 185.859 93.9545 183.715 96.5637 182.185C99.3265 180.654 102.319 179.888 105.543 179.888C108.766 179.888 111.682 180.654 114.291 182.185C117.054 183.715 119.203 185.859 120.738 188.614C122.272 191.217 123.04 194.125 123.04 197.34C123.04 200.555 122.272 203.54 120.738 206.296C119.203 208.898 117.054 210.965 114.291 212.495C111.682 214.026 108.766 214.792 105.543 214.792ZM105.543 191.829C102.319 191.829 99.3265 191.064 96.5637 189.533C93.9545 188.002 91.8825 185.935 90.3476 183.333C88.8128 180.577 88.0453 177.592 88.0453 174.377C88.0453 171.162 88.8128 168.254 90.3476 165.651C91.8825 162.896 93.9545 160.753 96.5637 159.222C99.3265 157.691 102.319 156.926 105.543 156.926C108.766 156.926 111.682 157.691 114.291 159.222C117.054 160.753 119.203 162.896 120.738 165.651C122.272 168.254 123.04 171.162 123.04 174.377C123.04 177.592 122.272 180.577 120.738 183.333C119.203 185.935 117.054 188.002 114.291 189.533C111.682 191.064 108.766 191.829 105.543 191.829ZM105.543 168.866C102.319 168.866 99.3265 168.101 96.5637 166.57C93.9545 165.039 91.8825 162.972 90.3476 160.37C88.8128 157.614 88.0453 154.629 88.0453 151.414C88.0453 148.2 88.8128 145.291 90.3476 142.689C91.8825 139.933 93.9545 137.79 96.5637 136.259C99.3265 134.728 102.319 133.963 105.543 133.963C108.766 133.963 111.682 134.728 114.291 136.259C117.054 137.79 119.203 139.933 120.738 142.689C122.272 145.291 123.04 148.2 123.04 151.414C123.04 154.629 122.272 157.614 120.738 160.37C119.203 162.972 117.054 165.039 114.291 166.57C111.682 168.101 108.766 168.866 105.543 168.866ZM82.5199 145.903C79.2967 145.903 76.3038 145.138 73.5411 143.607C70.9318 142.076 68.8598 140.01 67.3249 137.407C65.7901 134.652 65.0227 131.667 65.0227 128.452C65.0227 125.237 65.7901 122.328 67.3249 119.726C68.8598 116.97 70.9318 114.827 73.5411 113.296C76.3038 111.765 79.2967 111 82.5199 111C85.7431 111 88.6593 111.765 91.2685 113.296C94.0312 114.827 96.18 116.97 97.7149 119.726C99.2497 122.328 100.017 125.237 100.017 128.452C100.017 131.667 99.2497 134.652 97.7149 137.407C96.18 140.01 94.0312 142.076 91.2685 143.607C88.6593 145.138 85.7431 145.903 82.5199 145.903ZM59.4972 145.903C56.2741 145.903 53.2811 145.138 50.5184 143.607C47.9092 142.076 45.8371 140.01 44.3023 137.407C42.7674 134.652 42 131.667 42 128.452C42 125.237 42.7674 122.328 44.3023 119.726C45.8371 116.97 47.9092 114.827 50.5184 113.296C53.2811 111.765 56.2741 111 59.4972 111C62.7204 111 65.6366 111.765 68.2458 113.296C71.0086 114.827 73.1573 116.97 74.6922 119.726C76.227 122.328 76.9945 125.237 76.9945 128.452C76.9945 131.667 76.227 134.652 74.6922 137.407C73.1573 140.01 71.0086 142.076 68.2458 143.607C65.6366 145.138 62.7204 145.903 59.4972 145.903ZM59.4972 168.866C56.2741 168.866 53.2811 168.101 50.5184 166.57C47.9092 165.039 45.8371 162.972 44.3023 160.37C42.7674 157.614 42 154.629 42 151.414C42 148.2 42.7674 145.291 44.3023 142.689C45.8371 139.933 47.9092 137.79 50.5184 136.259C53.2811 134.728 56.2741 133.963 59.4972 133.963C62.7204 133.963 65.6366 134.728 68.2458 136.259C71.0086 137.79 73.1573 139.933 74.6922 142.689C76.227 145.291 76.9945 148.2 76.9945 151.414C76.9945 154.629 76.227 157.614 74.6922 160.37C73.1573 162.972 71.0086 165.039 68.2458 166.57C65.6366 168.101 62.7204 168.866 59.4972 168.866ZM59.4972 191.829C56.2741 191.829 53.2811 191.064 50.5184 189.533C47.9092 188.002 45.8371 185.935 44.3023 183.333C42.7674 180.577 42 177.592 42 174.377C42 171.162 42.7674 168.254 44.3023 165.651C45.8371 162.896 47.9092 160.753 50.5184 159.222C53.2811 157.691 56.2741 156.926 59.4972 156.926C62.7204 156.926 65.6366 157.691 68.2458 159.222C71.0086 160.753 73.1573 162.896 74.6922 165.651C76.227 168.254 76.9945 171.162 76.9945 174.377C76.9945 177.592 76.227 180.577 74.6922 183.333C73.1573 185.935 71.0086 188.002 68.2458 189.533C65.6366 191.064 62.7204 191.829 59.4972 191.829ZM59.4972 214.792C56.2741 214.792 53.2811 214.026 50.5184 212.495C47.9092 210.965 45.8371 208.898 44.3023 206.296C42.7674 203.54 42 200.555 42 197.34C42 194.125 42.7674 191.217 44.3023 188.614C45.8371 185.859 47.9092 183.715 50.5184 182.185C53.2811 180.654 56.2741 179.888 59.4972 179.888C62.7204 179.888 65.6366 180.654 68.2458 182.185C71.0086 183.715 73.1573 185.859 74.6922 188.614C76.227 191.217 76.9945 194.125 76.9945 197.34C76.9945 200.555 76.227 203.54 74.6922 206.296C73.1573 208.898 71.0086 210.965 68.2458 212.495C65.6366 214.026 62.7204 214.792 59.4972 214.792ZM59.4972 237.755C56.2741 237.755 53.2811 236.989 50.5184 235.458C47.9092 233.927 45.8371 231.861 44.3023 229.258C42.7674 226.503 42 223.518 42 220.303C42 217.088 42.7674 214.179 44.3023 211.577C45.8371 208.821 47.9092 206.678 50.5184 205.147C53.2811 203.617 56.2741 202.851 59.4972 202.851C62.7204 202.851 65.6366 203.617 68.2458 205.147C71.0086 206.678 73.1573 208.821 74.6922 211.577C76.227 214.179 76.9945 217.088 76.9945 220.303C76.9945 223.518 76.227 226.503 74.6922 229.258C73.1573 231.861 71.0086 233.927 68.2458 235.458C65.6366 236.989 62.7204 237.755 59.4972 237.755Z" fill="black"/>
<path d="M174.473 237.755C171.25 237.755 168.257 236.989 165.494 235.458C162.885 233.927 160.813 231.861 159.278 229.258C157.743 226.503 156.976 223.518 156.976 220.303C156.976 217.088 157.743 214.179 159.278 211.577C160.813 208.821 162.885 206.678 165.494 205.147C168.257 203.617 171.25 202.851 174.473 202.851C177.696 202.851 180.612 203.617 183.222 205.147C185.984 206.678 188.133 208.821 189.668 211.577C191.203 214.179 191.97 217.088 191.97 220.303C191.97 223.518 191.203 226.503 189.668 229.258C188.133 231.861 185.984 233.927 183.222 235.458C180.612 236.989 177.696 237.755 174.473 237.755ZM197.496 214.792C194.273 214.792 191.28 214.026 188.517 212.495C185.908 210.965 183.836 208.898 182.301 206.296C180.766 203.54 179.998 200.555 179.998 197.34C179.998 194.125 180.766 191.217 182.301 188.614C183.836 185.859 185.908 183.715 188.517 182.185C191.28 180.654 194.273 179.888 197.496 179.888C200.719 179.888 203.635 180.654 206.244 182.185C209.007 183.715 211.156 185.859 212.691 188.614C214.226 191.217 214.993 194.125 214.993 197.34C214.993 200.555 214.226 203.54 212.691 206.296C211.156 208.898 209.007 210.965 206.244 212.495C203.635 214.026 200.719 214.792 197.496 214.792ZM197.496 145.903C194.273 145.903 191.28 145.138 188.517 143.607C185.908 142.076 183.836 140.01 182.301 137.407C180.766 134.652 179.998 131.667 179.998 128.452C179.998 125.237 180.766 122.328 182.301 119.726C183.836 116.97 185.908 114.827 188.517 113.296C191.28 111.765 194.273 111 197.496 111C200.719 111 203.635 111.765 206.244 113.296C209.007 114.827 211.156 116.97 212.691 119.726C214.226 122.328 214.993 125.237 214.993 128.452C214.993 131.667 214.226 134.652 212.691 137.407C211.156 140.01 209.007 142.076 206.244 143.607C203.635 145.138 200.719 145.903 197.496 145.903ZM174.473 191.829C171.25 191.829 168.257 191.064 165.494 189.533C162.885 188.002 160.813 185.935 159.278 183.333C157.743 180.577 156.976 177.592 156.976 174.377C156.976 171.162 157.743 168.254 159.278 165.651C160.813 162.896 162.885 160.753 165.494 159.222C168.257 157.691 171.25 156.926 174.473 156.926C177.696 156.926 180.612 157.691 183.222 159.222C185.984 160.753 188.133 162.896 189.668 165.651C191.203 168.254 191.97 171.162 191.97 174.377C191.97 177.592 191.203 180.577 189.668 183.333C188.133 185.935 185.984 188.002 183.222 189.533C180.612 191.064 177.696 191.829 174.473 191.829ZM151.45 237.755C148.227 237.755 145.234 236.989 142.472 235.458C139.862 233.927 137.79 231.861 136.255 229.258C134.721 226.503 133.953 223.518 133.953 220.303C133.953 217.088 134.721 214.179 136.255 211.577C137.79 208.821 139.862 206.678 142.472 205.147C145.234 203.617 148.227 202.851 151.45 202.851C154.674 202.851 157.59 203.617 160.199 205.147C162.962 206.678 165.11 208.821 166.645 211.577C168.18 214.179 168.948 217.088 168.948 220.303C168.948 223.518 168.18 226.503 166.645 229.258C165.11 231.861 162.962 233.927 160.199 235.458C157.59 236.989 154.674 237.755 151.45 237.755ZM174.473 145.903C171.25 145.903 168.257 145.138 165.494 143.607C162.885 142.076 160.813 140.01 159.278 137.407C157.743 134.652 156.976 131.667 156.976 128.452C156.976 125.237 157.743 122.328 159.278 119.726C160.813 116.97 162.885 114.827 165.494 113.296C168.257 111.765 171.25 111 174.473 111C177.696 111 180.612 111.765 183.222 113.296C185.984 114.827 188.133 116.97 189.668 119.726C191.203 122.328 191.97 125.237 191.97 128.452C191.97 131.667 191.203 134.652 189.668 137.407C188.133 140.01 185.984 142.076 183.222 143.607C180.612 145.138 177.696 145.903 174.473 145.903ZM151.45 168.866C148.227 168.866 145.234 168.101 142.472 166.57C139.862 165.039 137.79 162.972 136.255 160.37C134.721 157.614 133.953 154.629 133.953 151.414C133.953 148.2 134.721 145.291 136.255 142.689C137.79 139.933 139.862 137.79 142.472 136.259C145.234 134.728 148.227 133.963 151.45 133.963C154.674 133.963 157.59 134.728 160.199 136.259C162.962 137.79 165.11 139.933 166.645 142.689C168.18 145.291 168.948 148.2 168.948 151.414C168.948 154.629 168.18 157.614 166.645 160.37C165.11 162.972 162.962 165.039 160.199 166.57C157.59 168.101 154.674 168.866 151.45 168.866Z" fill="black"/>
<path d="M289.042 191.829C285.839 191.829 282.865 191.064 280.12 189.533C277.528 188.002 275.469 185.935 273.944 183.333C272.419 180.577 271.656 177.592 271.656 174.377C271.656 171.162 272.419 168.254 273.944 165.651C275.469 162.896 277.528 160.753 280.12 159.222C282.865 157.691 285.839 156.926 289.042 156.926C292.244 156.926 295.142 157.691 297.734 159.222C300.479 160.753 302.614 162.896 304.139 165.651C305.664 168.254 306.427 171.162 306.427 174.377C306.427 177.592 305.664 180.577 304.139 183.333C302.614 185.935 300.479 188.002 297.734 189.533C295.142 191.064 292.244 191.829 289.042 191.829ZM289.042 145.903C285.839 145.903 282.865 145.138 280.12 143.607C277.528 142.076 275.469 140.01 273.944 137.407C272.419 134.652 271.656 131.667 271.656 128.452C271.656 125.237 272.419 122.328 273.944 119.726C275.469 116.97 277.528 114.827 280.12 113.296C282.865 111.765 285.839 111 289.042 111C292.244 111 295.142 111.765 297.734 113.296C300.479 114.827 302.614 116.97 304.139 119.726C305.664 122.328 306.427 125.237 306.427 128.452C306.427 131.667 305.664 134.652 304.139 137.407C302.614 140.01 300.479 142.076 297.734 143.607C295.142 145.138 292.244 145.903 289.042 145.903ZM243.291 214.792C240.089 214.792 237.115 214.026 234.37 212.495C231.778 210.965 229.719 208.898 228.194 206.296C226.669 203.54 225.906 200.555 225.906 197.34C225.906 194.125 226.669 191.217 228.194 188.614C229.719 185.859 231.778 183.715 234.37 182.185C237.115 180.654 240.089 179.888 243.291 179.888C246.494 179.888 249.391 180.654 251.984 182.185C254.729 183.715 256.864 185.859 258.389 188.614C259.914 191.217 260.676 194.125 260.676 197.34C260.676 200.555 259.914 203.54 258.389 206.296C256.864 208.898 254.729 210.965 251.984 212.495C249.391 214.026 246.494 214.792 243.291 214.792ZM243.291 191.829C240.089 191.829 237.115 191.064 234.37 189.533C231.778 188.002 229.719 185.935 228.194 183.333C226.669 180.577 225.906 177.592 225.906 174.377C225.906 171.162 226.669 168.254 228.194 165.651C229.719 162.896 231.778 160.753 234.37 159.222C237.115 157.691 240.089 156.926 243.291 156.926C246.494 156.926 249.391 157.691 251.984 159.222C254.729 160.753 256.864 162.896 258.389 165.651C259.914 168.254 260.676 171.162 260.676 174.377C260.676 177.592 259.914 180.577 258.389 183.333C256.864 185.935 254.729 188.002 251.984 189.533C249.391 191.064 246.494 191.829 243.291 191.829ZM243.291 168.866C240.089 168.866 237.115 168.101 234.37 166.57C231.778 165.039 229.719 162.972 228.194 160.37C226.669 157.614 225.906 154.629 225.906 151.414C225.906 148.2 226.669 145.291 228.194 142.689C229.719 139.933 231.778 137.79 234.37 136.259C237.115 134.728 240.089 133.963 243.291 133.963C246.494 133.963 249.391 134.728 251.984 136.259C254.729 137.79 256.864 139.933 258.389 142.689C259.914 145.291 260.676 148.2 260.676 151.414C260.676 154.629 259.914 157.614 258.389 160.37C256.864 162.972 254.729 165.039 251.984 166.57C249.391 168.101 246.494 168.866 243.291 168.866ZM266.166 145.903C262.964 145.903 259.99 145.138 257.245 143.607C254.653 142.076 252.594 140.01 251.069 137.407C249.544 134.652 248.781 131.667 248.781 128.452C248.781 125.237 249.544 122.328 251.069 119.726C252.594 116.97 254.653 114.827 257.245 113.296C259.99 111.765 262.964 111 266.166 111C269.369 111 272.266 111.765 274.859 113.296C277.604 114.827 279.739 116.97 281.264 119.726C282.789 122.328 283.551 125.237 283.551 128.452C283.551 131.667 282.789 134.652 281.264 137.407C279.739 140.01 277.604 142.076 274.859 143.607C272.266 145.138 269.369 145.903 266.166 145.903ZM243.291 237.755C240.089 237.755 237.115 236.989 234.37 235.458C231.778 233.927 229.719 231.861 228.194 229.258C226.669 226.503 225.906 223.518 225.906 220.303C225.906 217.088 226.669 214.179 228.194 211.577C229.719 208.821 231.778 206.678 234.37 205.147C237.115 203.617 240.089 202.851 243.291 202.851C246.494 202.851 249.391 203.617 251.984 205.147C254.729 206.678 256.864 208.821 258.389 211.577C259.914 214.179 260.676 217.088 260.676 220.303C260.676 223.518 259.914 226.503 258.389 229.258C256.864 231.861 254.729 233.927 251.984 235.458C249.391 236.989 246.494 237.755 243.291 237.755ZM243.291 145.903C240.089 145.903 237.115 145.138 234.37 143.607C231.778 142.076 229.719 140.01 228.194 137.407C226.669 134.652 225.906 131.667 225.906 128.452C225.906 125.237 226.669 122.328 228.194 119.726C229.719 116.97 231.778 114.827 234.37 113.296C237.115 111.765 240.089 111 243.291 111C246.494 111 249.391 111.765 251.984 113.296C254.729 114.827 256.864 116.97 258.389 119.726C259.914 122.328 260.676 125.237 260.676 128.452C260.676 131.667 259.914 134.652 258.389 137.407C256.864 140.01 254.729 142.076 251.984 143.607C249.391 145.138 246.494 145.903 243.291 145.903ZM266.166 191.829C262.964 191.829 259.99 191.064 257.245 189.533C254.653 188.002 252.594 185.935 251.069 183.333C249.544 180.577 248.781 177.592 248.781 174.377C248.781 171.162 249.544 168.254 251.069 165.651C252.594 162.896 254.653 160.753 257.245 159.222C259.99 157.691 262.964 156.926 266.166 156.926C269.369 156.926 272.266 157.691 274.859 159.222C277.604 160.753 279.739 162.896 281.264 165.651C282.789 168.254 283.551 171.162 283.551 174.377C283.551 177.592 282.789 180.577 281.264 183.333C279.739 185.935 277.604 188.002 274.859 189.533C272.266 191.064 269.369 191.829 266.166 191.829Z" fill="black"/>
</svg>
