<svg width="397" height="148" viewBox="0 0 397 148" fill="none" xmlns="http://www.w3.org/2000/svg">
<g clip-path="url(#clip0_135_531)">
<path d="M83.1953 0.264282C85.2852 0.703787 87.271 1.07357 89.2167 1.59609C94.6887 3.0656 99.5712 5.67653 103.939 9.34358C108.509 13.1807 112.024 17.8047 114.512 23.239C116.296 27.1354 117.456 31.2175 117.781 35.5087C117.946 37.6852 118.114 39.8788 118.026 42.0541C117.829 46.9179 116.727 51.5943 114.775 56.0575C112.409 61.4675 108.925 66.0415 104.626 70.0082C104.088 70.5041 103.52 70.966 102.912 71.6162C101.814 72.4378 100.772 73.0868 99.647 73.7734C98.7637 74.2998 97.9622 74.7886 97.0624 75.296C96.0719 75.772 95.1797 76.2293 94.1883 76.6706C93.3763 76.9191 92.6691 77.2006 91.9497 77.4452C86.941 79.1481 81.8313 80.1495 76.5228 79.5392C74.0315 79.2528 71.5354 78.9436 69.0757 78.4644C67.2646 78.1116 65.5092 77.4662 63.6358 76.9307C62.7859 76.4619 62.0145 76.0365 61.2796 75.554C60.9943 75.3666 60.7916 75.0504 60.5924 74.7078C61.7543 72.6446 62.8678 70.6623 63.9972 68.6893C68.1562 61.4243 72.3099 54.1561 76.5141 46.918C76.7238 46.5571 77.3721 46.3594 77.8482 46.2788C78.487 46.1705 79.1757 46.3522 79.8103 46.2323C82.681 45.6902 84.5743 43.8927 85.0922 40.8675C85.5523 38.1803 84.4205 35.8941 81.8291 34.3324C79.5176 32.9394 77.0705 33.1661 74.9847 34.7977C72.8936 36.4334 71.7657 38.6703 72.6373 41.4281C73.0031 42.5857 73.7016 43.6358 74.2988 44.8351C72.7706 47.5223 71.1356 50.3923 69.5052 53.265C66.2644 58.9753 63.0393 64.6947 59.7752 70.3912C59.1689 71.4492 58.4101 72.4176 57.6299 73.4214C56.7142 72.9056 55.8903 72.3957 55.0575 71.7962C52.9439 69.6598 50.7588 67.69 48.7534 65.548C45.7522 62.3425 43.6018 58.5331 42.1009 54.4282C39.9732 48.6086 39.0218 42.6092 39.645 36.333C40.1425 31.3231 41.3614 26.5754 43.5808 22.1184C45.9506 17.3593 49.0807 13.1804 53.1661 9.71475C57.9954 5.61803 63.3528 2.68678 69.515 1.30403C71.1513 0.936845 72.7964 0.609772 74.4375 0.264282C77.316 0.264282 80.1945 0.264282 83.1953 0.264282Z" fill="#222222"/>
<path d="M94.2874 76.6867C95.1797 76.2294 96.0719 75.772 97.1464 75.3397C102.753 84.8861 108.177 94.4074 113.621 103.962C112.339 105.142 111.637 106.649 111.542 108.377C111.355 111.749 114.488 114.911 117.807 115.043C121.247 115.18 124.26 111.752 124.342 108.904C124.457 104.881 120.928 101.645 117.009 102.235C116.585 102.298 115.894 101.889 115.635 101.493C114.796 100.213 114.111 98.8309 113.348 97.4989C108.811 89.5762 104.269 81.6566 99.7289 73.7359C100.772 73.0869 101.814 72.4379 102.904 71.7052C104.844 71.052 106.711 70.3511 108.638 69.9477C110.842 69.4866 113.091 69.1776 115.335 69.0115C117.418 68.8574 119.53 68.8488 121.612 69.0062C125.69 69.3145 129.609 70.3461 133.392 71.9518C138.854 74.2699 143.503 77.7288 147.403 82.1874C151.269 86.6082 154.061 91.6533 155.692 97.3682C156.918 101.666 157.406 106.023 157.222 110.464C157.037 114.915 156.141 119.234 154.514 123.378C152.237 129.179 148.778 134.179 144.181 138.318C139.085 142.906 133.157 145.942 126.493 147.457C125.21 147.748 123.888 147.864 122.539 148.163C119.617 148.264 116.738 148.264 113.693 148.162C112.309 147.866 111.088 147.699 109.877 147.474C102.395 146.087 96.0439 142.479 90.5825 137.224C86.8759 133.658 84.0494 129.452 81.9844 124.696C80.2639 120.733 79.1995 116.629 78.8519 112.22C78.769 111.477 78.6722 110.84 78.5935 110.084C78.5995 108.988 78.5875 108.013 78.5905 106.929C78.6831 106.185 78.7606 105.551 78.8555 104.8C79.0482 103.45 79.1933 102.211 79.4036 100.984C80.6927 93.4617 84.0939 86.9992 89.1902 81.4452C90.7584 79.7361 92.5812 78.2662 94.2874 76.6867Z" fill="#222222"/>
<path d="M78.5754 110.204C78.6722 110.84 78.769 111.477 78.7621 112.28C78.3587 116.963 77.1647 121.245 75.2988 125.339C72.8414 130.731 69.345 135.306 64.8265 139.118C60.4074 142.847 55.4756 145.518 49.9007 146.948C47.9932 147.438 46.061 147.829 44.1401 148.264C41.2616 148.264 38.3831 148.264 35.3336 148.165C33.9424 147.87 32.7136 147.718 31.5035 147.473C21.3985 145.421 13.4277 139.996 7.4592 131.585C3.84043 126.485 1.53754 120.79 0.765786 114.51C0.642936 113.511 0.431598 112.522 0.261169 111.529C0.261169 109.585 0.261169 107.641 0.36026 105.524C0.740518 103.475 0.95022 101.586 1.31563 99.7285C2.66135 92.8876 5.8822 86.9911 10.436 81.8353C14.2489 77.5184 18.8467 74.2391 24.1147 71.9774C28.1715 70.2358 32.3942 69.1041 36.8299 68.9876C38.8353 68.9349 40.8477 68.8947 42.8486 69.0047C44.5046 69.0957 46.1852 69.2656 47.7889 69.669C50.2445 70.2867 52.6434 71.1353 55.0663 71.8858C55.8903 72.3958 56.7142 72.9057 57.7269 73.4402C58.7943 73.9076 59.6728 74.3503 60.5513 74.793C60.7916 75.0505 60.9943 75.3667 61.2796 75.554C62.0145 76.0365 62.7859 76.462 63.6708 77.0108C64.4154 77.6468 65.0484 78.1641 65.6455 78.7208C68.8169 81.6771 71.6292 84.9437 73.7304 88.7697C75.5681 92.1159 77.0938 95.606 77.831 99.3939C78.1885 101.23 78.5037 103.075 78.838 104.917C78.7605 105.551 78.6831 106.185 78.4713 106.928C67.8462 107.036 57.3556 107.03 46.865 107.048C46.0938 107.049 45.7423 106.861 45.3935 106.048C44.3193 103.544 42.1815 102.057 39.6035 102.108C36.0829 102.179 33.4225 104.658 33.2156 108.437C33.0535 111.397 34.8639 113.792 38.0017 114.895C40.2276 115.677 43.427 114.399 44.8286 112.245C45.2414 111.61 45.5154 110.883 45.8504 110.204C56.8127 110.204 67.694 110.204 78.5754 110.204Z" fill="#222222"/>
<path d="M397.261 143.912C395.483 144.036 393.705 144.036 391.776 144.036C391.776 140.917 391.876 137.848 391.723 134.792C391.668 133.71 391.19 132.507 390.529 131.659C390.183 131.213 388.931 131.139 388.255 131.379C386.887 131.866 386.332 133.151 386.306 134.565C386.256 137.25 386.291 139.936 386.291 142.622C386.291 143.053 386.291 143.483 386.291 143.974C384.447 143.974 382.687 143.974 380.867 143.974C380.867 138.293 380.867 132.638 380.867 126.92C382.653 126.92 384.417 126.92 386.254 126.92C386.281 127.329 386.308 127.734 386.349 128.359C387.901 126.999 389.475 126.291 391.399 126.299C393.983 126.31 396.161 127.716 396.81 130.227C396.838 130.337 396.984 130.416 397.168 130.533C397.261 134.967 397.261 139.378 397.261 143.912Z" fill="#222222"/>
<path d="M189.62 51.0611C189.73 49.9551 189.84 48.9754 189.95 47.9957C189.905 47.9912 189.861 47.9866 189.816 47.9821C188.445 52.9784 187.084 57.9777 185.675 62.9634C185.591 63.2622 185.163 63.5382 184.835 63.6673C184.532 63.7862 184.147 63.708 183.8 63.69C182.701 63.6332 181.332 63.939 180.584 63.3872C179.922 62.8978 179.958 61.4477 179.672 60.426C178.586 56.5574 177.494 52.6905 176.362 48.6737C176.362 53.7104 176.362 58.6179 176.362 63.6089C174.588 63.6089 172.915 63.6089 171.076 63.6089C171.076 59.6652 171.076 55.6783 171.076 51.6913C171.076 47.7316 171.076 43.772 171.076 39.7276C173.657 39.7276 176.201 39.7276 178.819 39.7276C180.2 44.8137 181.596 49.9548 183.029 55.2327C183.324 54.1681 183.602 53.1765 183.872 52.1827C184.917 48.3391 185.984 44.5009 186.984 40.6454C187.183 39.8807 187.477 39.6037 188.272 39.6236C190.488 39.679 192.707 39.6428 195.015 39.6428C195.015 47.6153 195.015 55.5614 195.015 63.6002C193.325 63.6002 191.563 63.6002 189.62 63.6002C189.62 59.509 189.62 55.3482 189.62 51.0611Z" fill="#222222"/>
<path d="M240.551 134.1C240.551 137.432 240.551 140.643 240.551 143.945C238.768 143.945 237.008 143.945 235.156 143.945C235.156 138.357 235.156 132.704 235.156 126.953C236.788 126.953 238.497 126.953 240.276 126.953C240.276 127.42 240.276 127.889 240.276 128.513C240.597 128.341 240.835 128.27 240.997 128.117C243.808 125.471 246.974 125.599 249.723 128.424C249.87 128.576 250.567 128.444 250.783 128.221C252.774 126.164 255.158 125.866 257.71 126.691C260.035 127.443 261.043 129.421 261.136 131.661C261.305 135.737 261.184 139.826 261.184 143.972C259.345 143.972 257.586 143.972 255.699 143.972C255.699 140.758 255.739 137.56 255.672 134.364C255.655 133.549 255.454 132.653 255.062 131.951C254.577 131.085 253.593 130.839 252.679 131.165C251.517 131.581 251.025 132.607 251.01 133.797C250.974 136.745 250.998 139.694 250.998 142.642C250.998 143.071 250.998 143.5 250.998 143.981C249.053 143.981 247.207 143.981 245.252 143.981C245.252 140.693 245.252 137.45 245.252 134.206C245.252 132.22 244.622 131.181 243.36 131.086C241.944 130.979 240.834 132.123 240.551 134.1Z" fill="#222222"/>
<path d="M207.931 126.857C209.359 126.857 210.66 126.857 212.037 126.857C212.068 127.324 212.095 127.731 212.139 128.394C213.662 126.952 215.246 126.296 217.173 126.29C219.271 126.284 220.582 127.351 221.508 128.728C222.805 127.98 224.012 127.07 225.366 126.561C226.814 126.017 228.37 126.165 229.83 126.847C231.684 127.712 232.595 129.348 232.666 131.221C232.823 135.436 232.715 139.661 232.715 143.958C230.904 143.958 229.144 143.958 227.23 143.958C227.23 140.656 227.234 137.328 227.226 134.001C227.225 133.569 227.263 133.099 227.114 132.713C226.77 131.82 226.316 131.009 225.134 131.076C224.008 131.14 223.226 131.693 222.813 132.706C222.611 133.204 222.545 133.788 222.541 134.333C222.517 137.503 222.529 140.672 222.529 143.939C220.758 143.939 218.997 143.939 217.044 143.939C217.044 142.685 217.074 141.341 217.038 140C216.974 137.649 216.92 135.295 216.762 132.95C216.683 131.764 215.917 131.116 214.716 131.089C213.65 131.065 212.495 131.986 212.358 133.055C212.211 134.21 212.112 135.378 212.093 136.542C212.054 138.998 212.082 141.454 212.082 143.973C210.24 143.973 208.481 143.973 206.659 143.973C206.659 138.297 206.659 132.643 206.659 126.857C207.05 126.857 207.426 126.857 207.931 126.857Z" fill="#222222"/>
<path d="M197.456 83.2501C195.847 83.2501 194.369 83.2501 192.887 83.2501C193.26 86.509 196.636 87.7096 198.481 86.1765C200.62 84.3986 202.827 85.5102 205.019 85.0318C204.205 89.223 200.246 91.5047 195.084 90.8575C189.69 90.1814 186.757 86.3927 187.325 80.6687C187.865 75.2232 191.877 72.3948 197.157 72.7074C202.57 73.0278 205.646 77.4456 205.223 83.2501C202.686 83.2501 200.136 83.2501 197.456 83.2501ZM199.54 79.5164C199.048 77.3571 197.561 76.7464 195.678 76.9081C194.438 77.0145 193.289 78.2393 193.054 79.7394C195.203 79.7394 197.344 79.7394 199.54 79.5164Z" fill="#222222"/>
<path d="M334.551 126.329C337.068 126.508 339.451 126.789 340.831 129.142C341.262 129.876 341.57 130.798 341.594 131.644C341.682 134.767 341.589 137.894 341.653 141.018C341.673 141.962 341.984 142.899 342.196 144.023C340.657 144.023 338.912 144.099 337.183 143.96C336.825 143.931 336.53 143.104 336.173 142.598C334.34 144.796 331.641 144.65 329.168 144.153C326.144 143.544 325.116 141.256 325.201 138.819C325.293 136.225 327.213 134.396 329.945 133.988C331.53 133.751 333.116 133.502 334.686 133.183C335.508 133.016 336.429 132.595 336.077 131.584C335.884 131.029 335.063 130.467 334.441 130.344C333.082 130.074 331.848 130.409 331.236 131.924C331.145 132.148 330.761 132.378 330.506 132.386C329.033 132.429 327.557 132.407 326.088 132.407C325.877 129.833 327.575 127.695 330.285 126.895C331.607 126.504 333.043 126.505 334.551 126.329ZM332 137.253C331.553 137.819 330.897 138.331 330.738 138.97C330.643 139.352 331.25 140.251 331.678 140.357C332.534 140.569 333.557 140.619 334.378 140.338C336.243 139.699 336.589 138.768 336.318 136.162C334.944 136.498 333.57 136.834 332 137.253Z" fill="#222222"/>
<path d="M346.899 100.873C350.234 103.141 350.766 106.482 350.794 110.17C346.849 110.17 342.997 110.17 339.156 110.17C339.018 111.469 339.77 112.766 340.91 113.308C342.176 113.91 343.819 113.614 344.702 112.471C345.122 111.927 345.525 111.759 346.165 111.779C347.594 111.823 349.025 111.793 350.459 111.793C350.343 114.228 348.151 116.618 345.261 117.298C342.173 118.024 339.117 117.902 336.44 115.769C334.951 114.582 334.079 113.036 333.629 111.219C332.753 107.678 333.392 104.469 335.962 101.844C337.395 100.38 339.206 99.6448 341.319 99.6093C343.271 99.5765 345.143 99.6922 346.899 100.873ZM339.791 104.753C339.471 105.352 339.151 105.951 338.752 106.699C341.06 106.699 343.026 106.699 345.067 106.699C344.914 105.463 344.525 104.525 343.42 103.939C342.032 103.203 340.923 103.789 339.791 104.753Z" fill="#222222"/>
<path d="M234.97 79.7678C235.602 76.405 237.428 74.215 240.56 73.2076C244.024 72.0933 247.239 72.5937 249.769 75.3246C251.755 77.4691 252.366 80.2229 252.291 83.2236C248.273 83.2236 244.329 83.2236 240.376 83.2236C240.721 85.9736 242.287 86.9068 244.233 86.6648C244.746 86.6011 245.385 86.4161 245.692 86.051C246.391 85.2209 247.191 85.0246 248.202 85.0828C249.456 85.1549 250.717 85.1 251.985 85.1C251.427 88.3409 248.196 90.6511 244.782 90.9102C242.057 91.1171 239.526 90.4894 237.449 88.6606C235.833 87.2377 235.106 85.24 234.834 83.1349C234.695 82.0619 234.862 80.9484 234.97 79.7678ZM243.317 76.9072C241.709 77.0279 240.896 77.8286 240.412 79.7741C242.443 79.7741 244.472 79.7741 246.505 79.7741C246.294 77.9196 245.385 77.0528 243.317 76.9072Z" fill="#222222"/>
<path d="M287.303 137.17C287.303 139.496 287.303 141.69 287.303 143.96C285.488 143.96 283.728 143.96 281.893 143.96C281.893 138.325 281.893 132.671 281.893 126.937C283.625 126.937 285.385 126.937 287.262 126.937C287.288 127.302 287.317 127.712 287.358 128.284C287.898 127.926 288.364 127.662 288.781 127.335C290.47 126.012 294.141 126.031 295.845 127.327C297.389 128.5 298.16 130.016 298.225 131.758C298.374 135.796 298.272 139.842 298.272 143.96C296.456 143.96 294.697 143.96 292.788 143.96C292.788 140.829 292.801 137.678 292.78 134.528C292.773 133.423 292.648 132.306 291.642 131.613C290.051 130.516 287.966 131.349 287.593 133.296C287.36 134.517 287.391 135.789 287.303 137.17Z" fill="#222222"/>
<path d="M216.432 78.0083C214.191 76.4848 212.131 78.5712 212.09 81.5051C212.05 84.4065 212.082 87.3088 212.082 90.2981C210.292 90.2981 208.532 90.2981 206.684 90.2981C206.684 84.6996 206.684 79.0456 206.684 73.2993C208.415 73.2993 210.211 73.2993 212.079 73.2993C212.079 73.7749 212.079 74.2441 212.079 74.767C213.071 74.188 213.946 73.5537 214.913 73.1359C217.658 71.9495 220.896 73.1409 222.044 75.2675C222.515 76.14 222.981 77.1509 223.006 78.1108C223.112 82.1505 223.051 86.1947 223.051 90.3113C221.234 90.3113 219.474 90.3113 217.566 90.3113C217.566 87.2212 217.65 84.1106 217.518 81.0095C217.476 80.0191 216.862 79.0536 216.432 78.0083Z" fill="#222222"/>
<path d="M364.294 128.633C367.192 126.054 370.442 125.796 373.871 126.872C377.078 127.878 378.968 130.293 379.432 133.502C379.993 137.39 379.163 141.013 375.47 143.189C372.141 145.151 368.684 145.095 365.399 143.079C362.739 141.447 361.516 138.906 361.468 135.748C361.426 132.995 362.102 130.567 364.294 128.633ZM370.946 140.336C371.612 139.931 372.517 139.684 372.9 139.092C374.103 137.228 374.302 135.174 373.521 133.03C372.942 131.441 371.79 130.323 370.515 130.295C369.431 130.271 367.844 131.461 367.551 132.891C367.26 134.311 367.113 135.845 367.32 137.267C367.626 139.38 368.844 140.296 370.946 140.336Z" fill="#222222"/>
<path d="M264.114 115.121C263.8 113.838 263.341 112.651 263.31 111.452C263.212 107.639 263.274 103.821 263.274 99.9531C265.134 99.9531 266.893 99.9531 268.759 99.9531C268.759 103.243 268.757 106.486 268.759 109.73C268.76 111.668 269.598 112.813 271.037 112.85C272.725 112.893 273.949 111.632 273.972 109.694C274.01 106.486 273.982 103.278 273.982 99.9846C275.778 99.9846 277.537 99.9846 279.382 99.9846C279.382 105.589 279.382 111.242 279.382 116.987C277.733 116.987 276.023 116.987 274.232 116.987C274.232 116.529 274.232 116.07 274.232 115.346C272.074 117.901 269.45 118.076 266.771 117.274C265.787 116.98 265.027 115.921 264.114 115.121Z" fill="#222222"/>
<path d="M197.14 126.329C201.496 126.747 205.394 129.692 205.313 135.001C205.281 137.148 205.09 139.163 203.774 140.971C202.566 142.632 201.014 143.641 199.061 144.157C195.552 145.084 192.335 144.509 189.786 141.891C187.277 139.315 186.772 136.13 187.677 132.604C188.65 128.814 192.321 126.041 197.14 126.329ZM197.235 130.563C195.646 130.126 194.386 130.723 193.602 132.222C192.748 133.856 192.884 135.619 193.129 137.307C193.256 138.187 193.853 139.207 194.551 139.752C196.34 141.15 198.505 140.239 199.299 138.044C200.446 134.873 199.459 131.568 197.235 130.563Z" fill="#222222"/>
<path d="M293.875 90.216C290.391 91.4235 287.13 91.2076 284.155 89.0495C282.475 87.831 281.457 86.0891 281.179 84.0358C280.842 81.5524 280.838 79.1065 282.252 76.8165C283.881 74.1788 287.865 72.2885 291.261 72.8662C294.047 73.34 296.283 74.4165 297.746 76.8137C299.707 80.0263 299.608 84.962 297.078 87.7083C296.194 88.6685 295.001 89.3381 293.875 90.216ZM286.779 83.3702C286.893 84.7831 287.999 86.4099 289.033 86.6848C290.35 87.0352 291.812 86.5397 292.47 85.5192C293.724 83.577 293.582 80.1251 292.308 78.0675C291.505 76.769 289.106 76.5718 288.167 77.4579C286.852 78.6993 286.144 81.3244 286.779 83.3702Z" fill="#222222"/>
<path d="M211.76 117.071C209.992 117.078 208.35 117.078 206.653 117.078C206.653 111.331 206.653 105.679 206.653 99.963C208.441 99.963 210.203 99.963 212.094 99.963C212.094 100.46 212.094 100.949 212.094 101.64C212.774 101.143 213.232 100.692 213.778 100.427C218.417 98.1731 223.053 100.3 223.052 105.955C223.051 109.604 223.051 113.254 223.051 116.991C221.263 116.991 219.503 116.991 217.566 116.991C217.566 114.036 217.581 111.021 217.555 108.007C217.549 107.373 217.437 106.73 217.295 106.11C217.06 105.09 216.441 104.47 215.356 104.39C214.211 104.305 213.171 104.489 212.74 105.725C212.437 106.596 212.143 107.52 212.111 108.43C212.025 110.891 212.091 113.356 212.073 115.82C212.07 116.235 211.952 116.649 211.76 117.071Z" fill="#222222"/>
<path d="M263.274 133.464C263.274 131.225 263.274 129.119 263.274 126.935C265.084 126.935 266.843 126.935 268.759 126.935C268.759 130.145 268.755 133.382 268.763 136.619C268.764 137.052 268.714 137.529 268.87 137.908C269.208 138.731 269.591 139.523 270.713 139.561C271.931 139.603 272.957 139.341 273.46 138.129C273.729 137.479 273.947 136.752 273.959 136.055C274.013 133.03 273.982 130.003 273.982 126.917C275.828 126.917 277.587 126.917 279.407 126.917C279.407 132.597 279.407 138.25 279.407 143.969C277.718 143.969 276.043 143.969 274.287 143.969C274.287 143.425 274.287 142.875 274.287 142.628C272.933 143.198 271.596 143.985 270.157 144.322C266.624 145.148 263.403 142.768 263.284 139.008C263.226 137.206 263.274 135.4 263.274 133.464Z" fill="#222222"/>
<path d="M205.291 110.367C204.673 113.424 203.193 115.714 200.378 116.89C195.497 118.929 188.554 117.169 187.48 110.522C186.971 107.365 187.483 104.517 189.602 102.311C190.815 101.048 192.684 100.025 194.395 99.743C197.659 99.2046 200.887 99.6785 203.285 102.486C204.484 103.889 205.2 105.484 205.283 107.339C205.327 108.306 205.291 109.277 205.291 110.367ZM193.015 108.499C193.189 109.541 193.256 110.617 193.565 111.616C193.932 112.808 194.899 113.489 196.105 113.62C197.223 113.742 198.117 113.26 198.777 112.272C200.227 110.103 200.01 107.804 199.189 105.56C198.585 103.908 196.944 103.307 195.366 103.856C193.891 104.37 193.017 106.006 193.015 108.499Z" fill="#222222"/>
<path d="M207.905 44.6643C206.824 44.6643 205.872 44.6643 204.844 44.6643C204.844 43.0055 204.844 41.4008 204.844 39.719C211.285 39.719 217.745 39.719 224.281 39.719C224.281 41.3014 224.281 42.9061 224.281 44.6171C222.108 44.6171 219.911 44.6171 217.613 44.6171C217.613 50.9941 217.613 57.2672 217.613 63.6164C215.666 63.6164 213.818 63.6164 211.867 63.6164C211.867 57.3634 211.867 51.0902 211.867 44.6643C210.524 44.6643 209.28 44.6643 207.905 44.6643Z" fill="#222222"/>
<path d="M237.069 101.003C238.325 102.146 239.002 103.449 238.974 105.144C237.241 105.144 235.595 105.144 233.946 105.144C233.323 103.5 232.737 103.059 231.124 103.382C230.643 103.478 230.116 104.053 229.913 104.538C229.822 104.756 230.414 105.532 230.809 105.644C232.545 106.136 234.35 106.383 236.078 106.898C238.212 107.534 239.492 109.297 239.506 111.301C239.526 114.305 238.409 116.298 236.141 117.06C233.436 117.97 230.646 117.972 227.995 117.021C226.009 116.309 224.589 114.811 224.349 112.492C224.319 112.206 224.188 111.93 224.084 111.583C225.913 111.583 227.684 111.583 229.455 111.582C230.03 113.402 230.87 114.005 232.591 113.916C233.476 113.869 234.208 113.4 234.197 112.613C234.19 112.075 233.545 111.254 233.014 111.072C231.516 110.559 229.923 110.334 228.378 109.951C225.638 109.272 224.585 107.404 224.62 104.819C224.648 102.709 226.314 100.39 228.497 99.9612C231.385 99.3939 234.334 99.1086 237.069 101.003Z" fill="#222222"/>
<path d="M322.824 128.979C323.812 130.241 324.384 131.555 324.387 133.157C322.566 133.157 320.833 133.157 319.097 133.157C318.543 131.165 317.559 130.347 315.963 130.558C314.484 130.753 313.177 132.304 313.179 134.039C313.18 135.369 313.212 136.729 313.485 138.021C313.752 139.281 315.014 140.024 316.268 140.081C317.692 140.145 318.654 139.694 318.959 138.136C319.016 137.845 319.594 137.478 319.947 137.46C321.465 137.386 322.989 137.429 324.514 137.429C324.203 140.969 322.313 143.365 319.052 144.18C313.837 145.484 308.496 143.421 307.503 137.206C306.398 130.285 311.212 125.243 318.3 126.545C320.098 126.875 321.527 127.674 322.824 128.979Z" fill="#222222"/>
<path d="M184.406 74.7259C186.289 76.4084 186.723 77.9887 186.957 79.7595C185.186 79.7595 183.423 79.7595 181.969 79.7595C181.179 78.8996 180.637 77.9644 179.83 77.5075C178.422 76.7099 176.785 77.767 176.272 79.1782C175.477 81.3618 175.291 83.5732 176.664 85.7018C177.314 86.7095 178.243 86.9772 179.24 86.9364C180.327 86.8919 181.233 86.2346 181.447 85.1307C181.638 84.1456 182.127 84.0222 182.942 84.0516C184.241 84.0985 185.542 84.0641 186.83 84.0641C187.181 86.3917 185.996 88.7514 183.726 90.0766C180.709 91.8378 175.726 91.6437 173.011 89.1255C170.023 86.3529 169.463 83.0324 170.442 79.2252C171.558 74.8851 175.285 73.0158 178.992 73.0001C180.887 72.9921 182.737 73.5111 184.406 74.7259Z" fill="#222222"/>
<path d="M182.086 143.868C179.284 144.876 176.633 144.774 174.029 143.445C171.179 141.99 169.841 139.495 169.545 136.461C169.227 133.197 170.133 130.315 172.793 128.138C176.514 125.094 184.093 125.725 185.982 130.975C186.223 131.644 186.383 132.342 186.61 133.13C184.694 133.13 182.927 133.13 181.447 133.13C180.752 132.292 180.275 131.42 179.55 130.913C178.502 130.182 177.198 130.519 176.319 131.464C174.787 133.112 174.932 138.182 176.493 139.406C178.164 140.716 180.298 140.292 180.996 138.258C181.201 137.658 181.49 137.381 182.17 137.411C183.555 137.471 184.944 137.429 186.321 137.429C186.801 140.049 185.247 142.399 182.086 143.868Z" fill="#222222"/>
<path d="M178.394 117.607C172.008 118.007 168.679 111.86 169.709 106.826C170.503 102.945 172.557 100.439 176.349 99.7726C179.951 99.1399 184.126 99.6549 185.954 104.109C186.207 104.728 186.34 105.397 186.561 106.151C184.708 106.151 182.953 106.151 181.174 106.151C180.462 104.302 179.655 103.721 177.934 103.864C176.739 103.964 175.525 105.137 175.349 106.953C175.207 108.409 175.486 109.943 175.788 111.398C176.093 112.87 177.235 113.43 178.665 113.375C180.057 113.321 180.748 112.402 181.183 111.203C181.256 111 181.272 110.776 181.324 110.516C182.996 110.516 184.679 110.516 186.358 110.516C186.893 114.564 183.51 117.607 178.394 117.607Z" fill="#222222"/>
<path d="M282.914 114.619C279.459 110.199 280.364 102.264 286.516 100.072C289.388 99.0497 293.8 99.291 296.186 102.16C297.131 103.296 297.715 104.589 297.782 106.243C296.178 106.243 294.624 106.282 293.075 106.209C292.767 106.195 292.379 105.809 292.198 105.494C290.949 103.313 288.42 103.202 287.263 105.402C286.171 107.477 286.247 109.695 287.218 111.806C287.793 113.057 288.933 113.534 290.278 113.369C291.536 113.216 292.272 112.351 292.531 110.837C292.55 110.723 292.598 110.615 292.643 110.471C294.201 110.471 295.72 110.471 297.239 110.471C297.451 110.471 297.664 110.471 297.867 110.471C298.181 112.683 296.688 115.355 294.509 116.56C290.679 118.678 286.228 117.956 282.914 114.619Z" fill="#222222"/>
<path d="M328.895 116.126C328.51 116.508 328.195 117.017 327.85 117.039C326.42 117.133 324.977 117.013 323.547 117.103C322.68 117.158 322.289 116.767 322.048 116.043C320.564 111.591 319.085 107.137 317.598 102.686C317.306 101.813 316.987 100.948 316.639 99.9601C318.705 99.9601 320.562 99.9601 322.479 99.9601C323.432 103.172 324.391 106.405 325.482 110.081C325.818 109.389 326.074 108.997 326.205 108.567C327.008 105.936 327.759 103.289 328.595 100.67C328.698 100.347 329.188 99.9507 329.515 99.9345C331.074 99.8575 332.639 99.9 334.416 99.9C332.566 105.358 330.759 110.694 328.895 116.126Z" fill="#222222"/>
<path d="M277.9 88.5176C277.9 89.1715 277.9 89.6954 277.9 90.3024C276.102 90.3024 274.343 90.3024 272.483 90.3024C272.483 85.9292 272.483 81.5098 272.483 76.9898C271.762 76.9898 271.133 76.9898 270.414 76.9898C270.414 75.6935 270.414 74.4959 270.414 73.2432C271.035 73.2432 271.633 73.2432 272.41 73.2432C272.339 71.2183 272.278 69.0979 274.029 67.7927C276.079 66.2652 278.538 66.5332 280.977 66.6489C280.977 67.9483 280.977 69.2036 280.977 70.4566C278.224 70.798 277.78 71.42 277.941 73.1803C278.918 73.1803 279.904 73.1803 280.962 73.1803C280.962 74.4283 280.962 75.5923 280.962 76.8606C280.004 76.8606 279.025 76.8606 277.9 76.8606C277.9 80.7703 277.9 84.5789 277.9 88.5176Z" fill="#222222"/>
<path d="M308.981 113.688C308.981 117.343 308.979 117.405 305.506 117.308C304.364 117.276 303.12 117.05 302.125 116.521C300.795 115.815 300.368 114.382 300.364 112.88C300.356 109.846 300.362 106.811 300.362 103.675C299.702 103.675 299.072 103.675 298.357 103.675C298.357 102.411 298.357 101.245 298.357 99.9758C298.932 99.9758 299.562 99.9758 300.294 99.9758C300.294 98.1839 300.294 96.4869 300.294 94.7025C302.151 94.7025 303.911 94.7025 305.777 94.7025C305.777 96.3359 305.777 98.0304 305.777 99.8284C306.853 99.8284 307.831 99.8284 308.895 99.8284C308.895 101.094 308.895 102.259 308.895 103.53C307.973 103.53 306.995 103.53 305.851 103.53C305.851 106.34 305.779 109.052 305.888 111.757C305.929 112.75 306.853 112.861 307.726 112.875C308.194 112.883 309.074 112.401 308.981 113.688Z" fill="#222222"/>
<path d="M225.924 79.0356C225.924 78.2939 225.924 77.6822 225.924 76.9683C225.165 76.9683 224.449 76.9683 223.653 76.9683C223.653 75.703 223.653 74.5377 223.653 73.269C224.332 73.269 225.048 73.269 225.867 73.269C225.867 71.4766 225.867 69.7807 225.867 68.0038C227.725 68.0038 229.485 68.0038 231.351 68.0038C231.351 69.655 231.351 71.3491 231.351 73.1458C232.34 73.1458 233.23 73.1458 234.201 73.1458C234.201 74.4119 234.201 75.5766 234.201 76.8462C233.353 76.8462 232.461 76.8462 231.412 76.8462C231.412 79.701 231.371 82.4569 231.465 85.2081C231.476 85.5367 232.171 85.9651 232.625 86.1202C233.087 86.278 233.643 86.1551 234.22 86.1551C234.22 87.5673 234.22 88.9132 234.22 90.6205C232.44 90.5408 230.676 90.5515 228.933 90.3578C227.297 90.1759 225.943 88.3697 225.929 86.5608C225.91 84.0959 225.924 81.6306 225.924 79.0356Z" fill="#222222"/>
<path d="M247.08 110.179C247.08 110.615 247.105 110.926 247.076 111.231C246.965 112.407 247.447 112.967 248.642 112.856C249.027 112.82 249.418 112.85 249.953 112.85C249.953 114.108 249.993 115.328 249.921 116.541C249.905 116.808 249.489 117.27 249.256 117.27C247.388 117.275 245.495 117.674 243.673 116.83C242.073 116.09 241.659 114.681 241.619 113.155C241.537 110.074 241.589 106.989 241.585 103.906C241.585 103.865 241.57 103.823 241.542 103.68C240.94 103.68 240.31 103.68 239.592 103.68C239.592 102.415 239.592 101.248 239.592 99.9786C240.163 99.9786 240.793 99.9786 241.526 99.9786C241.526 98.1859 241.526 96.4882 241.526 94.7029C243.384 94.7029 245.145 94.7029 247.013 94.7029C247.013 96.3375 247.013 98.0326 247.013 99.831C248.002 99.831 248.894 99.831 249.869 99.831C249.869 101.098 249.869 102.263 249.869 103.534C249.029 103.534 248.137 103.534 247.08 103.534C247.08 105.773 247.08 107.912 247.08 110.179Z" fill="#222222"/>
<path d="M344.763 132.167C344.763 131.602 344.763 131.165 344.763 130.628C344.013 130.628 343.297 130.628 342.496 130.628C342.496 129.364 342.496 128.199 342.496 126.931C343.158 126.931 343.875 126.931 344.692 126.931C344.692 125.14 344.692 123.445 344.692 121.661C346.547 121.661 348.307 121.661 350.171 121.661C350.171 123.286 350.171 124.979 350.171 126.774C351.158 126.774 352.048 126.774 353.03 126.774C353.03 128.038 353.03 129.203 353.03 130.471C352.214 130.471 351.324 130.471 350.252 130.471C350.252 133.276 350.199 135.983 350.311 138.684C350.327 139.074 351.091 139.54 351.598 139.766C351.992 139.943 352.525 139.802 353.058 139.802C353.058 141.21 353.058 142.554 353.058 144.197C351.176 144.06 349.283 144.104 347.469 143.741C345.614 143.37 344.772 142.003 344.765 140.082C344.756 137.487 344.763 134.891 344.763 132.167Z" fill="#222222"/>
<path d="M203.201 54.1785C203.201 57.3875 203.201 60.4644 203.201 63.6169C201.299 63.6169 199.452 63.6169 197.53 63.6169C197.53 55.6877 197.53 47.7413 197.53 39.7188C199.357 39.7188 201.204 39.7188 203.201 39.7188C203.201 44.4824 203.201 49.2644 203.201 54.1785Z" fill="#222222"/>
<path d="M300.362 82.9857C300.362 79.6902 300.362 76.5268 300.362 73.2855C302.171 73.2855 303.931 73.2855 305.801 73.2855C305.829 73.8358 305.858 74.4175 305.881 74.8753C306.901 74.291 307.874 73.6228 308.936 73.1671C309.531 72.9118 310.283 72.9192 310.945 72.993C311.19 73.0204 311.546 73.5659 311.563 73.8911C311.634 75.2003 311.593 76.5157 311.593 77.8187C310.608 77.9557 309.668 77.9829 308.788 78.2308C307.027 78.7274 306.124 79.988 306.112 81.8095C306.093 84.5818 306.1 87.3542 306.094 90.1265C306.093 90.1641 306.062 90.2016 306.013 90.3124C304.201 90.3124 302.355 90.3124 300.362 90.3124C300.362 87.9239 300.362 85.5209 300.362 82.9857Z" fill="#222222"/>
<path d="M257.005 108.705C257.005 111.542 257.005 114.257 257.005 117.025C255.059 117.025 253.214 117.025 251.314 117.025C251.314 111.33 251.314 105.679 251.314 99.964C253.099 99.964 254.858 99.964 256.752 99.964C256.752 100.548 256.752 101.128 256.752 101.492C257.925 100.89 259.029 100.209 260.215 99.7485C261.368 99.3006 261.963 99.8159 261.967 101.044C261.971 102.221 261.968 103.398 261.968 104.562C258.439 104.889 257.142 105.962 257.005 108.705Z" fill="#222222"/>
<path d="M261.947 73.0929C262.751 73.0107 263.478 73.0107 264.261 73.0107C264.261 74.6349 264.261 76.242 264.261 77.9149C263.509 77.9517 262.755 77.8678 262.067 78.0453C260.134 78.544 259.247 79.7516 259.127 82.1338C258.989 84.8444 259.095 87.5676 259.095 90.3348C257.261 90.3348 255.532 90.3348 253.706 90.3348C253.706 84.6838 253.706 78.997 253.706 73.2584C255.392 73.2584 257.068 73.2584 258.818 73.2584C258.818 73.864 258.818 74.4217 258.818 74.9518C259.866 74.3414 260.868 73.7582 261.947 73.0929Z" fill="#222222"/>
<path d="M316.033 109.15C316.033 111.83 316.033 114.379 316.033 117.003C314.131 117.003 312.284 117.003 310.361 117.003C310.361 111.365 310.361 105.708 310.361 99.9761C312.189 99.9761 314.036 99.9761 316.033 99.9761C316.033 102.977 316.033 105.997 316.033 109.15Z" fill="#222222"/>
<path d="M300.362 140.861C300.362 136.155 300.362 131.582 300.362 126.933C302.265 126.933 304.112 126.933 306.034 126.933C306.034 132.573 306.034 138.229 306.034 143.961C304.204 143.961 302.357 143.961 300.362 143.961C300.362 142.985 300.362 141.988 300.362 140.861Z" fill="#222222"/>
<path d="M354.696 143.711C354.689 138.045 354.689 132.506 354.689 126.913C356.545 126.913 358.305 126.913 360.119 126.913C360.119 132.614 360.119 138.27 360.119 144.122C358.279 144.026 356.491 143.932 354.696 143.711Z" fill="#222222"/>
<path d="M310.723 97.8305C309.479 95.0155 310.603 92.8145 313.201 92.7657C314.454 92.7421 315.499 93.2567 315.999 94.3968C316.534 95.6156 316.515 96.8857 315.482 97.9476C314.504 98.9527 313.33 99.0491 312.094 98.6647C311.629 98.52 311.229 98.1621 310.723 97.8305Z" fill="#222222"/>
<path d="M357.544 119.721C359.665 119.746 360.447 120.626 360.434 122.847C360.424 124.642 359.49 125.534 357.618 125.536C354.821 125.539 353.583 123.33 354.927 120.831C355.509 119.748 356.417 119.679 357.544 119.721Z" fill="#222222"/>
<path d="M301.243 120.286C302.598 119.455 303.909 119.402 305.14 120.236C306.189 120.946 306.602 122.058 306.297 123.288C306.005 124.467 305.272 125.345 303.987 125.53C302.529 125.741 301.171 125.461 300.436 124.063C299.923 123.086 299.728 121.603 301.243 120.286Z" fill="#222222"/>
</g>
<defs>
<clipPath id="clip0_135_531">
<rect width="397" height="148" fill="white"/>
</clipPath>
</defs>
</svg>
