<svg xmlns="http://www.w3.org/2000/svg" fill="none" viewBox="0 0 347 381">
  <path fill="#000" d="M85.8 60.7c0 9-7 15.8-15.7 15.8s-15.8-6.7-15.8-15.8S61.3 45 70.1 45c8.7 0 15.7 6.7 15.7 15.8m-6.9 0c0-5.7-4-9.5-8.8-9.5s-8.9 3.8-8.9 9.5c0 5.6 4.1 9.6 8.9 9.6 4.7 0 8.8-4 8.8-9.6m40.7-.1c0 9-7 15.8-15.8 15.8-8.6 0-15.7-6.7-15.7-15.8S95 45 103.8 45s15.8 6.7 15.8 15.8m-7 0c0-5.7-4-9.5-8.8-9.5-4.7 0-8.8 3.8-8.8 9.5 0 5.6 4 9.6 8.8 9.6s8.9-4 8.9-9.6M152.2 46v28.5c0 11.8-6.9 16.6-15 16.6a15 15 0 0 1-14-9.4l6-2.5c1 2.6 3.7 5.6 8 5.6 5.2 0 8.4-3.2 8.4-9.3v-2.3h-.2c-1.6 2-4.6 3.6-8.4 3.6-7.9 0-15.2-7-15.2-15.9s7.3-16 15.2-16a11 11 0 0 1 8.4 3.6h.2V46zm-6 15c0-5.7-3.8-9.8-8.6-9.8s-8.8 4.1-8.8 9.7 4 9.6 8.8 9.6 8.5-4 8.5-9.6m17.4-31.7v46.1h-6.8V29.2zm25.8 36.7 5.4 3.6a16 16 0 0 1-13.2 7c-9 0-15.8-7-15.8-15.8 0-9.4 6.8-15.8 15-15.8s12.3 6.6 13.6 10l.7 1.9-21.2 8.7a8 8 0 0 0 7.7 4.8 9 9 0 0 0 7.8-4.4m-16.7-5.7 14.2-5.8c-.8-2-3.1-3.4-5.9-3.4a8.7 8.7 0 0 0-8.3 9.2M28.3 56.8v-6.6h22.3q.3 1.8.3 4c0 5-1.3 11.1-5.7 15.5a22 22 0 0 1-17 6.8A24.6 24.6 0 0 1 3.8 52.3 24.6 24.6 0 0 1 45 34.7l-4.7 4.7a17.4 17.4 0 0 0-29.4 12.9c0 9.7 7.7 17.5 17.5 17.5 6.3 0 9.9-2.5 12.2-4.8q2.9-2.7 3.6-8.2zM184.9 117H265L84.1 381H4z"/>
  <path fill="#000" d="M84.1 117H4l180.9 264H265zm248.9 0h-68v264h68z"/>
  <circle cx="299" cy="47" r="44" fill="#000"/>
</svg>