<svg width="742" height="618" viewBox="0 0 742 618" fill="none" xmlns="http://www.w3.org/2000/svg">
<path d="M560.264 617.983C555.851 617.983 551.754 616.933 547.972 614.832C544.4 612.73 541.563 609.894 539.462 606.322C537.36 602.539 536.31 598.442 536.31 594.029C536.31 589.617 537.36 585.624 539.462 582.052C541.563 578.27 544.4 575.328 547.972 573.227C551.754 571.126 555.851 570.075 560.264 570.075C564.677 570.075 568.669 571.126 572.241 573.227C576.023 575.328 578.965 578.27 581.066 582.052C583.168 585.624 584.218 589.617 584.218 594.029C584.218 598.442 583.168 602.539 581.066 606.322C578.965 609.894 576.023 612.73 572.241 614.832C568.669 616.933 564.677 617.983 560.264 617.983ZM591.783 586.465C587.37 586.465 583.273 585.414 579.49 583.313C575.918 581.212 573.082 578.375 570.98 574.803C568.879 571.021 567.829 566.923 567.829 562.511C567.829 558.098 568.879 554.106 570.98 550.533C573.082 546.751 575.918 543.809 579.49 541.708C583.273 539.607 587.37 538.556 591.783 538.556C596.195 538.556 600.188 539.607 603.76 541.708C607.542 543.809 610.484 546.751 612.585 550.533C614.686 554.106 615.737 558.098 615.737 562.511C615.737 566.923 614.686 571.021 612.585 574.803C610.484 578.375 607.542 581.212 603.76 583.313C600.188 585.414 596.195 586.465 591.783 586.465ZM591.783 491.908C587.37 491.908 583.273 490.858 579.49 488.757C575.918 486.655 573.082 483.819 570.98 480.247C568.879 476.464 567.829 472.367 567.829 467.954C567.829 463.542 568.879 459.549 570.98 455.977C573.082 452.195 575.918 449.253 579.49 447.152C583.273 445.051 587.37 444 591.783 444C596.195 444 600.188 445.051 603.76 447.152C607.542 449.253 610.484 452.195 612.585 455.977C614.686 459.549 615.737 463.542 615.737 467.954C615.737 472.367 614.686 476.464 612.585 480.247C610.484 483.819 607.542 486.655 603.76 488.757C600.188 490.858 596.195 491.908 591.783 491.908ZM560.264 554.946C555.851 554.946 551.754 553.895 547.972 551.794C544.4 549.693 541.563 546.856 539.462 543.284C537.36 539.502 536.31 535.404 536.31 530.992C536.31 526.579 537.36 522.587 539.462 519.015C541.563 515.232 544.4 512.291 547.972 510.189C551.754 508.088 555.851 507.038 560.264 507.038C564.677 507.038 568.669 508.088 572.241 510.189C576.023 512.291 578.965 515.232 581.066 519.015C583.168 522.587 584.218 526.579 584.218 530.992C584.218 535.404 583.168 539.502 581.066 543.284C578.965 546.856 576.023 549.693 572.241 551.794C568.669 553.895 564.677 554.946 560.264 554.946ZM528.745 617.983C524.333 617.983 520.235 616.933 516.453 614.832C512.881 612.73 510.044 609.894 507.943 606.322C505.842 602.539 504.791 598.442 504.791 594.029C504.791 589.617 505.842 585.624 507.943 582.052C510.044 578.27 512.881 575.328 516.453 573.227C520.235 571.126 524.333 570.075 528.745 570.075C533.158 570.075 537.15 571.126 540.722 573.227C544.505 575.328 547.446 578.27 549.548 582.052C551.649 585.624 552.7 589.617 552.7 594.029C552.7 598.442 551.649 602.539 549.548 606.322C547.446 609.894 544.505 612.73 540.722 614.832C537.15 616.933 533.158 617.983 528.745 617.983ZM560.264 491.908C555.851 491.908 551.754 490.858 547.972 488.757C544.4 486.655 541.563 483.819 539.462 480.247C537.36 476.464 536.31 472.367 536.31 467.954C536.31 463.542 537.36 459.549 539.462 455.977C541.563 452.195 544.4 449.253 547.972 447.152C551.754 445.051 555.851 444 560.264 444C564.677 444 568.669 445.051 572.241 447.152C576.023 449.253 578.965 452.195 581.066 455.977C583.168 459.549 584.218 463.542 584.218 467.954C584.218 472.367 583.168 476.464 581.066 480.247C578.965 483.819 576.023 486.655 572.241 488.757C568.669 490.858 564.677 491.908 560.264 491.908ZM528.745 523.427C524.333 523.427 520.235 522.377 516.453 520.275C512.881 518.174 510.044 515.337 507.943 511.765C505.842 507.983 504.791 503.886 504.791 499.473C504.791 495.06 505.842 491.068 507.943 487.496C510.044 483.714 512.881 480.772 516.453 478.671C520.235 476.569 524.333 475.519 528.745 475.519C533.158 475.519 537.15 476.569 540.722 478.671C544.505 480.772 547.446 483.714 549.548 487.496C551.649 491.068 552.7 495.06 552.7 499.473C552.7 503.886 551.649 507.983 549.548 511.765C547.446 515.337 544.505 518.174 540.722 520.275C537.15 522.377 533.158 523.427 528.745 523.427Z" fill="white"/>
<path d="M465.586 617.983C461.173 617.983 457.075 616.933 453.293 614.832C449.721 612.73 446.884 609.894 444.783 606.322C442.682 602.539 441.631 598.442 441.631 594.029C441.631 589.617 442.682 585.624 444.783 582.052C446.884 578.27 449.721 575.328 453.293 573.227C457.075 571.126 461.173 570.075 465.586 570.075C469.998 570.075 473.991 571.126 477.563 573.227C481.345 575.328 484.287 578.27 486.388 582.052C488.489 585.624 489.54 589.617 489.54 594.029C489.54 598.442 488.489 602.539 486.388 606.322C484.287 609.894 481.345 612.73 477.563 614.832C473.991 616.933 469.998 617.983 465.586 617.983ZM465.586 586.465C461.173 586.465 457.075 585.414 453.293 583.313C449.721 581.212 446.884 578.375 444.783 574.803C442.682 571.021 441.631 566.923 441.631 562.511C441.631 558.098 442.682 554.106 444.783 550.533C446.884 546.751 449.721 543.809 453.293 541.708C457.075 539.607 461.173 538.556 465.586 538.556C469.998 538.556 473.991 539.607 477.563 541.708C481.345 543.809 484.287 546.751 486.388 550.533C488.489 554.106 489.54 558.098 489.54 562.511C489.54 566.923 488.489 571.021 486.388 574.803C484.287 578.375 481.345 581.212 477.563 583.313C473.991 585.414 469.998 586.465 465.586 586.465ZM465.586 491.908C461.173 491.908 457.075 490.858 453.293 488.757C449.721 486.655 446.884 483.819 444.783 480.247C442.682 476.464 441.631 472.367 441.631 467.954C441.631 463.542 442.682 459.549 444.783 455.977C446.884 452.195 449.721 449.253 453.293 447.152C457.075 445.051 461.173 444 465.586 444C469.998 444 473.991 445.051 477.563 447.152C481.345 449.253 484.287 452.195 486.388 455.977C488.489 459.549 489.54 463.542 489.54 467.954C489.54 472.367 488.489 476.464 486.388 480.247C484.287 483.819 481.345 486.655 477.563 488.757C473.991 490.858 469.998 491.908 465.586 491.908ZM465.586 523.427C461.173 523.427 457.075 522.377 453.293 520.275C449.721 518.174 446.884 515.337 444.783 511.765C442.682 507.983 441.631 503.886 441.631 499.473C441.631 495.06 442.682 491.068 444.783 487.496C446.884 483.714 449.721 480.772 453.293 478.671C457.075 476.569 461.173 475.519 465.586 475.519C469.998 475.519 473.991 476.569 477.563 478.671C481.345 480.772 484.287 483.714 486.388 487.496C488.489 491.068 489.54 495.06 489.54 499.473C489.54 503.886 488.489 507.983 486.388 511.765C484.287 515.337 481.345 518.174 477.563 520.275C473.991 522.377 469.998 523.427 465.586 523.427ZM465.586 554.946C461.173 554.946 457.075 553.895 453.293 551.794C449.721 549.693 446.884 546.856 444.783 543.284C442.682 539.502 441.631 535.404 441.631 530.992C441.631 526.579 442.682 522.587 444.783 519.015C446.884 515.232 449.721 512.291 453.293 510.189C457.075 508.088 461.173 507.038 465.586 507.038C469.998 507.038 473.991 508.088 477.563 510.189C481.345 512.291 484.287 515.232 486.388 519.015C488.489 522.587 489.54 526.579 489.54 530.992C489.54 535.404 488.489 539.502 486.388 543.284C484.287 546.856 481.345 549.693 477.563 551.794C473.991 553.895 469.998 554.946 465.586 554.946ZM434.067 523.427C429.654 523.427 425.557 522.377 421.774 520.275C418.202 518.174 415.366 515.337 413.264 511.765C411.163 507.983 410.113 503.886 410.113 499.473C410.113 495.06 411.163 491.068 413.264 487.496C415.366 483.714 418.202 480.772 421.774 478.671C425.557 476.569 429.654 475.519 434.067 475.519C438.479 475.519 442.472 476.569 446.044 478.671C449.826 480.772 452.768 483.714 454.869 487.496C456.97 491.068 458.021 495.06 458.021 499.473C458.021 503.886 456.97 507.983 454.869 511.765C452.768 515.337 449.826 518.174 446.044 520.275C442.472 522.377 438.479 523.427 434.067 523.427ZM402.548 491.908C398.135 491.908 394.038 490.858 390.256 488.757C386.684 486.655 383.847 483.819 381.746 480.247C379.644 476.464 378.594 472.367 378.594 467.954C378.594 463.542 379.644 459.549 381.746 455.977C383.847 452.195 386.684 449.253 390.256 447.152C394.038 445.051 398.135 444 402.548 444C406.961 444 410.953 445.051 414.525 447.152C418.307 449.253 421.249 452.195 423.35 455.977C425.452 459.549 426.502 463.542 426.502 467.954C426.502 472.367 425.452 476.464 423.35 480.247C421.249 483.819 418.307 486.655 414.525 488.757C410.953 490.858 406.961 491.908 402.548 491.908ZM402.548 523.427C398.135 523.427 394.038 522.377 390.256 520.275C386.684 518.174 383.847 515.337 381.746 511.765C379.644 507.983 378.594 503.886 378.594 499.473C378.594 495.06 379.644 491.068 381.746 487.496C383.847 483.714 386.684 480.772 390.256 478.671C394.038 476.569 398.135 475.519 402.548 475.519C406.961 475.519 410.953 476.569 414.525 478.671C418.307 480.772 421.249 483.714 423.35 487.496C425.452 491.068 426.502 495.06 426.502 499.473C426.502 503.886 425.452 507.983 423.35 511.765C421.249 515.337 418.307 518.174 414.525 520.275C410.953 522.377 406.961 523.427 402.548 523.427ZM402.548 554.946C398.135 554.946 394.038 553.895 390.256 551.794C386.684 549.693 383.847 546.856 381.746 543.284C379.644 539.502 378.594 535.404 378.594 530.992C378.594 526.579 379.644 522.587 381.746 519.015C383.847 515.232 386.684 512.291 390.256 510.189C394.038 508.088 398.135 507.038 402.548 507.038C406.961 507.038 410.953 508.088 414.525 510.189C418.307 512.291 421.249 515.232 423.35 519.015C425.452 522.587 426.502 526.579 426.502 530.992C426.502 535.404 425.452 539.502 423.35 543.284C421.249 546.856 418.307 549.693 414.525 551.794C410.953 553.895 406.961 554.946 402.548 554.946ZM402.548 586.465C398.135 586.465 394.038 585.414 390.256 583.313C386.684 581.212 383.847 578.375 381.746 574.803C379.644 571.021 378.594 566.923 378.594 562.511C378.594 558.098 379.644 554.106 381.746 550.533C383.847 546.751 386.684 543.809 390.256 541.708C394.038 539.607 398.135 538.556 402.548 538.556C406.961 538.556 410.953 539.607 414.525 541.708C418.307 543.809 421.249 546.751 423.35 550.533C425.452 554.106 426.502 558.098 426.502 562.511C426.502 566.923 425.452 571.021 423.35 574.803C421.249 578.375 418.307 581.212 414.525 583.313C410.953 585.414 406.961 586.465 402.548 586.465ZM402.548 617.983C398.135 617.983 394.038 616.933 390.256 614.832C386.684 612.73 383.847 609.894 381.746 606.322C379.644 602.539 378.594 598.442 378.594 594.029C378.594 589.617 379.644 585.624 381.746 582.052C383.847 578.27 386.684 575.328 390.256 573.227C394.038 571.126 398.135 570.075 402.548 570.075C406.961 570.075 410.953 571.126 414.525 573.227C418.307 575.328 421.249 578.27 423.35 582.052C425.452 585.624 426.502 589.617 426.502 594.029C426.502 598.442 425.452 602.539 423.35 606.322C421.249 609.894 418.307 612.73 414.525 614.832C410.953 616.933 406.961 617.983 402.548 617.983Z" fill="white"/>
<path d="M339.392 586.465C334.98 586.465 330.882 585.414 327.1 583.313C323.528 581.212 320.691 578.375 318.59 574.803C316.489 571.021 315.438 566.923 315.438 562.511C315.438 558.098 316.489 554.106 318.59 550.533C320.691 546.751 323.528 543.809 327.1 541.708C330.882 539.607 334.98 538.556 339.392 538.556C343.805 538.556 347.797 539.607 351.369 541.708C355.152 543.809 358.093 546.751 360.195 550.533C362.296 554.106 363.346 558.098 363.346 562.511C363.346 566.923 362.296 571.021 360.195 574.803C358.093 578.375 355.152 581.212 351.369 583.313C347.797 585.414 343.805 586.465 339.392 586.465ZM339.392 617.983C334.98 617.983 330.882 616.933 327.1 614.832C323.528 612.73 320.691 609.894 318.59 606.322C316.489 602.539 315.438 598.442 315.438 594.029C315.438 589.617 316.489 585.624 318.59 582.052C320.691 578.27 323.528 575.328 327.1 573.227C330.882 571.126 334.98 570.075 339.392 570.075C343.805 570.075 347.797 571.126 351.369 573.227C355.152 575.328 358.093 578.27 360.195 582.052C362.296 585.624 363.346 589.617 363.346 594.029C363.346 598.442 362.296 602.539 360.195 606.322C358.093 609.894 355.152 612.73 351.369 614.832C347.797 616.933 343.805 617.983 339.392 617.983ZM339.392 523.427C334.98 523.427 330.882 522.377 327.1 520.275C323.528 518.174 320.691 515.337 318.59 511.765C316.489 507.983 315.438 503.886 315.438 499.473C315.438 495.06 316.489 491.068 318.59 487.496C320.691 483.714 323.528 480.772 327.1 478.671C330.882 476.569 334.98 475.519 339.392 475.519C343.805 475.519 347.797 476.569 351.369 478.671C355.152 480.772 358.093 483.714 360.195 487.496C362.296 491.068 363.346 495.06 363.346 499.473C363.346 503.886 362.296 507.983 360.195 511.765C358.093 515.337 355.152 518.174 351.369 520.275C347.797 522.377 343.805 523.427 339.392 523.427ZM307.873 554.946C303.461 554.946 299.363 553.895 295.581 551.794C292.009 549.693 289.172 546.856 287.071 543.284C284.97 539.502 283.919 535.404 283.919 530.992C283.919 526.579 284.97 522.587 287.071 519.015C289.172 515.232 292.009 512.291 295.581 510.189C299.363 508.088 303.461 507.038 307.873 507.038C312.286 507.038 316.278 508.088 319.851 510.189C323.633 512.291 326.575 515.232 328.676 519.015C330.777 522.587 331.828 526.579 331.828 530.992C331.828 535.404 330.777 539.502 328.676 543.284C326.575 546.856 323.633 549.693 319.851 551.794C316.278 553.895 312.286 554.946 307.873 554.946ZM276.355 491.908C271.942 491.908 267.845 490.858 264.062 488.757C260.49 486.655 257.654 483.819 255.552 480.247C253.451 476.464 252.4 472.367 252.4 467.954C252.4 463.542 253.451 459.549 255.552 455.977C257.654 452.195 260.49 449.253 264.062 447.152C267.845 445.051 271.942 444 276.355 444C280.767 444 284.76 445.051 288.332 447.152C292.114 449.253 295.056 452.195 297.157 455.977C299.258 459.549 300.309 463.542 300.309 467.954C300.309 472.367 299.258 476.464 297.157 480.247C295.056 483.819 292.114 486.655 288.332 488.757C284.76 490.858 280.767 491.908 276.355 491.908ZM276.355 617.983C271.942 617.983 267.845 616.933 264.062 614.832C260.49 612.73 257.654 609.894 255.552 606.322C253.451 602.539 252.4 598.442 252.4 594.029C252.4 589.617 253.451 585.624 255.552 582.052C257.654 578.27 260.49 575.328 264.062 573.227C267.845 571.126 271.942 570.075 276.355 570.075C280.767 570.075 284.76 571.126 288.332 573.227C292.114 575.328 295.056 578.27 297.157 582.052C299.258 585.624 300.309 589.617 300.309 594.029C300.309 598.442 299.258 602.539 297.157 606.322C295.056 609.894 292.114 612.73 288.332 614.832C284.76 616.933 280.767 617.983 276.355 617.983ZM307.873 491.908C303.461 491.908 299.363 490.858 295.581 488.757C292.009 486.655 289.172 483.819 287.071 480.247C284.97 476.464 283.919 472.367 283.919 467.954C283.919 463.542 284.97 459.549 287.071 455.977C289.172 452.195 292.009 449.253 295.581 447.152C299.363 445.051 303.461 444 307.873 444C312.286 444 316.278 445.051 319.851 447.152C323.633 449.253 326.575 452.195 328.676 455.977C330.777 459.549 331.828 463.542 331.828 467.954C331.828 472.367 330.777 476.464 328.676 480.247C326.575 483.819 323.633 486.655 319.851 488.757C316.278 490.858 312.286 491.908 307.873 491.908ZM276.355 523.427C271.942 523.427 267.845 522.377 264.062 520.275C260.49 518.174 257.654 515.337 255.552 511.765C253.451 507.983 252.4 503.886 252.4 499.473C252.4 495.06 253.451 491.068 255.552 487.496C257.654 483.714 260.49 480.772 264.062 478.671C267.845 476.569 271.942 475.519 276.355 475.519C280.767 475.519 284.76 476.569 288.332 478.671C292.114 480.772 295.056 483.714 297.157 487.496C299.258 491.068 300.309 495.06 300.309 499.473C300.309 503.886 299.258 507.983 297.157 511.765C295.056 515.337 292.114 518.174 288.332 520.275C284.76 522.377 280.767 523.427 276.355 523.427ZM276.355 554.946C271.942 554.946 267.845 553.895 264.062 551.794C260.49 549.693 257.654 546.856 255.552 543.284C253.451 539.502 252.4 535.404 252.4 530.992C252.4 526.579 253.451 522.587 255.552 519.015C257.654 515.232 260.49 512.291 264.062 510.189C267.845 508.088 271.942 507.038 276.355 507.038C280.767 507.038 284.76 508.088 288.332 510.189C292.114 512.291 295.056 515.232 297.157 519.015C299.258 522.587 300.309 526.579 300.309 530.992C300.309 535.404 299.258 539.502 297.157 543.284C295.056 546.856 292.114 549.693 288.332 551.794C284.76 553.895 280.767 554.946 276.355 554.946ZM276.355 586.465C271.942 586.465 267.845 585.414 264.062 583.313C260.49 581.212 257.654 578.375 255.552 574.803C253.451 571.021 252.4 566.923 252.4 562.511C252.4 558.098 253.451 554.106 255.552 550.533C257.654 546.751 260.49 543.809 264.062 541.708C267.845 539.607 271.942 538.556 276.355 538.556C280.767 538.556 284.76 539.607 288.332 541.708C292.114 543.809 295.056 546.751 297.157 550.533C299.258 554.106 300.309 558.098 300.309 562.511C300.309 566.923 299.258 571.021 297.157 574.803C295.056 578.375 292.114 581.212 288.332 583.313C284.76 585.414 280.767 586.465 276.355 586.465Z" fill="white"/>
<path d="M213.191 586.465C208.778 586.465 204.681 585.414 200.899 583.313C197.327 581.212 194.49 578.375 192.389 574.803C190.287 571.021 189.237 566.923 189.237 562.511C189.237 558.098 190.287 554.106 192.389 550.533C194.49 546.751 197.327 543.809 200.899 541.708C204.681 539.607 208.778 538.556 213.191 538.556C217.604 538.556 221.596 539.607 225.168 541.708C228.95 543.809 231.892 546.751 233.993 550.533C236.095 554.106 237.145 558.098 237.145 562.511C237.145 566.923 236.095 571.021 233.993 574.803C231.892 578.375 228.95 581.212 225.168 583.313C221.596 585.414 217.604 586.465 213.191 586.465ZM213.191 554.946C208.778 554.946 204.681 553.895 200.899 551.794C197.327 549.693 194.49 546.856 192.389 543.284C190.287 539.502 189.237 535.404 189.237 530.992C189.237 526.579 190.287 522.587 192.389 519.015C194.49 515.232 197.327 512.291 200.899 510.189C204.681 508.088 208.778 507.038 213.191 507.038C217.604 507.038 221.596 508.088 225.168 510.189C228.95 512.291 231.892 515.232 233.993 519.015C236.095 522.587 237.145 526.579 237.145 530.992C237.145 535.404 236.095 539.502 233.993 543.284C231.892 546.856 228.95 549.693 225.168 551.794C221.596 553.895 217.604 554.946 213.191 554.946ZM213.191 523.427C208.778 523.427 204.681 522.377 200.899 520.275C197.327 518.174 194.49 515.337 192.389 511.765C190.287 507.983 189.237 503.886 189.237 499.473C189.237 495.06 190.287 491.068 192.389 487.496C194.49 483.714 197.327 480.772 200.899 478.671C204.681 476.569 208.778 475.519 213.191 475.519C217.604 475.519 221.596 476.569 225.168 478.671C228.95 480.772 231.892 483.714 233.993 487.496C236.095 491.068 237.145 495.06 237.145 499.473C237.145 503.886 236.095 507.983 233.993 511.765C231.892 515.337 228.95 518.174 225.168 520.275C221.596 522.377 217.604 523.427 213.191 523.427ZM181.672 491.908C177.26 491.908 173.162 490.858 169.38 488.757C165.808 486.655 162.971 483.819 160.87 480.247C158.769 476.464 157.718 472.367 157.718 467.954C157.718 463.542 158.769 459.549 160.87 455.977C162.971 452.195 165.808 449.253 169.38 447.152C173.162 445.051 177.26 444 181.672 444C186.085 444 190.077 445.051 193.649 447.152C197.432 449.253 200.373 452.195 202.475 455.977C204.576 459.549 205.626 463.542 205.626 467.954C205.626 472.367 204.576 476.464 202.475 480.247C200.373 483.819 197.432 486.655 193.649 488.757C190.077 490.858 186.085 491.908 181.672 491.908ZM150.153 523.427C145.741 523.427 141.643 522.377 137.861 520.275C134.289 518.174 131.452 515.337 129.351 511.765C127.25 507.983 126.199 503.886 126.199 499.473C126.199 495.06 127.25 491.068 129.351 487.496C131.452 483.714 134.289 480.772 137.861 478.671C141.643 476.569 145.741 475.519 150.153 475.519C154.566 475.519 158.558 476.569 162.131 478.671C165.913 480.772 168.855 483.714 170.956 487.496C173.057 491.068 174.108 495.06 174.108 499.473C174.108 503.886 173.057 507.983 170.956 511.765C168.855 515.337 165.913 518.174 162.131 520.275C158.558 522.377 154.566 523.427 150.153 523.427ZM150.153 554.946C145.741 554.946 141.643 553.895 137.861 551.794C134.289 549.693 131.452 546.856 129.351 543.284C127.25 539.502 126.199 535.404 126.199 530.992C126.199 526.579 127.25 522.587 129.351 519.015C131.452 515.232 134.289 512.291 137.861 510.189C141.643 508.088 145.741 507.038 150.153 507.038C154.566 507.038 158.558 508.088 162.131 510.189C165.913 512.291 168.855 515.232 170.956 519.015C173.057 522.587 174.108 526.579 174.108 530.992C174.108 535.404 173.057 539.502 170.956 543.284C168.855 546.856 165.913 549.693 162.131 551.794C158.558 553.895 154.566 554.946 150.153 554.946ZM150.153 586.465C145.741 586.465 141.643 585.414 137.861 583.313C134.289 581.212 131.452 578.375 129.351 574.803C127.25 571.021 126.199 566.923 126.199 562.511C126.199 558.098 127.25 554.106 129.351 550.533C131.452 546.751 134.289 543.809 137.861 541.708C141.643 539.607 145.741 538.556 150.153 538.556C154.566 538.556 158.558 539.607 162.131 541.708C165.913 543.809 168.855 546.751 170.956 550.533C173.057 554.106 174.108 558.098 174.108 562.511C174.108 566.923 173.057 571.021 170.956 574.803C168.855 578.375 165.913 581.212 162.131 583.313C158.558 585.414 154.566 586.465 150.153 586.465ZM181.672 617.983C177.26 617.983 173.162 616.933 169.38 614.832C165.808 612.73 162.971 609.894 160.87 606.322C158.769 602.539 157.718 598.442 157.718 594.029C157.718 589.617 158.769 585.624 160.87 582.052C162.971 578.27 165.808 575.328 169.38 573.227C173.162 571.126 177.26 570.075 181.672 570.075C186.085 570.075 190.077 571.126 193.649 573.227C197.432 575.328 200.373 578.27 202.475 582.052C204.576 585.624 205.626 589.617 205.626 594.029C205.626 598.442 204.576 602.539 202.475 606.322C200.373 609.894 197.432 612.73 193.649 614.832C190.077 616.933 186.085 617.983 181.672 617.983Z" fill="white"/>
<path d="M86.9918 554.946C82.5791 554.946 78.4817 553.895 74.6994 551.794C71.1273 549.693 68.2906 546.856 66.1894 543.284C64.0881 539.502 63.0375 535.404 63.0375 530.992C63.0375 526.579 64.0881 522.587 66.1894 519.015C68.2906 515.232 71.1273 512.291 74.6994 510.189C78.4817 508.088 82.5791 507.038 86.9918 507.038C91.4044 507.038 95.3968 508.088 98.9689 510.189C102.751 512.291 105.693 515.232 107.794 519.015C109.895 522.587 110.946 526.579 110.946 530.992C110.946 535.404 109.895 539.502 107.794 543.284C105.693 546.856 102.751 549.693 98.9689 551.794C95.3968 553.895 91.4044 554.946 86.9918 554.946ZM86.9918 491.908C82.5791 491.908 78.4817 490.858 74.6994 488.757C71.1273 486.655 68.2906 483.819 66.1894 480.247C64.0881 476.464 63.0375 472.367 63.0375 467.954C63.0375 463.542 64.0881 459.549 66.1894 455.977C68.2906 452.195 71.1273 449.253 74.6994 447.152C78.4817 445.051 82.5791 444 86.9918 444C91.4044 444 95.3968 445.051 98.9689 447.152C102.751 449.253 105.693 452.195 107.794 455.977C109.895 459.549 110.946 463.542 110.946 467.954C110.946 472.367 109.895 476.464 107.794 480.247C105.693 483.819 102.751 486.655 98.9689 488.757C95.3968 490.858 91.4044 491.908 86.9918 491.908ZM23.9543 586.465C19.5416 586.465 15.4442 585.414 11.6619 583.313C8.08981 581.212 5.25313 578.375 3.15188 574.803C1.05062 571.021 0 566.923 0 562.511C0 558.098 1.05062 554.106 3.15188 550.533C5.25313 546.751 8.08981 543.809 11.6619 541.708C15.4442 539.607 19.5416 538.556 23.9543 538.556C28.3669 538.556 32.3593 539.607 35.9314 541.708C39.7136 543.809 42.6554 546.751 44.7566 550.533C46.8579 554.106 47.9085 558.098 47.9085 562.511C47.9085 566.923 46.8579 571.021 44.7566 574.803C42.6554 578.375 39.7136 581.212 35.9314 583.313C32.3593 585.414 28.3669 586.465 23.9543 586.465ZM23.9543 554.946C19.5416 554.946 15.4442 553.895 11.6619 551.794C8.08981 549.693 5.25313 546.856 3.15188 543.284C1.05062 539.502 0 535.404 0 530.992C0 526.579 1.05062 522.587 3.15188 519.015C5.25313 515.232 8.08981 512.291 11.6619 510.189C15.4442 508.088 19.5416 507.038 23.9543 507.038C28.3669 507.038 32.3593 508.088 35.9314 510.189C39.7136 512.291 42.6554 515.232 44.7566 519.015C46.8579 522.587 47.9085 526.579 47.9085 530.992C47.9085 535.404 46.8579 539.502 44.7566 543.284C42.6554 546.856 39.7136 549.693 35.9314 551.794C32.3593 553.895 28.3669 554.946 23.9543 554.946ZM23.9543 523.427C19.5416 523.427 15.4442 522.377 11.6619 520.275C8.08981 518.174 5.25313 515.337 3.15188 511.765C1.05062 507.983 0 503.886 0 499.473C0 495.06 1.05062 491.068 3.15188 487.496C5.25313 483.714 8.08981 480.772 11.6619 478.671C15.4442 476.569 19.5416 475.519 23.9543 475.519C28.3669 475.519 32.3593 476.569 35.9314 478.671C39.7136 480.772 42.6554 483.714 44.7566 487.496C46.8579 491.068 47.9085 495.06 47.9085 499.473C47.9085 503.886 46.8579 507.983 44.7566 511.765C42.6554 515.337 39.7136 518.174 35.9314 520.275C32.3593 522.377 28.3669 523.427 23.9543 523.427ZM55.473 491.908C51.0604 491.908 46.9629 490.858 43.1807 488.757C39.6086 486.655 36.7719 483.819 34.6706 480.247C32.5694 476.464 31.5188 472.367 31.5188 467.954C31.5188 463.542 32.5694 459.549 34.6706 455.977C36.7719 452.195 39.6086 449.253 43.1807 447.152C46.9629 445.051 51.0604 444 55.473 444C59.8856 444 63.878 445.051 67.4501 447.152C71.2324 449.253 74.1741 452.195 76.2754 455.977C78.3766 459.549 79.4273 463.542 79.4273 467.954C79.4273 472.367 78.3766 476.464 76.2754 480.247C74.1741 483.819 71.2324 486.655 67.4501 488.757C63.878 490.858 59.8856 491.908 55.473 491.908ZM23.9543 617.983C19.5416 617.983 15.4442 616.933 11.6619 614.832C8.08981 612.73 5.25313 609.894 3.15188 606.322C1.05062 602.539 0 598.442 0 594.029C0 589.617 1.05062 585.624 3.15188 582.052C5.25313 578.27 8.08981 575.328 11.6619 573.227C15.4442 571.126 19.5416 570.075 23.9543 570.075C28.3669 570.075 32.3593 571.126 35.9314 573.227C39.7136 575.328 42.6554 578.27 44.7566 582.052C46.8579 585.624 47.9085 589.617 47.9085 594.029C47.9085 598.442 46.8579 602.539 44.7566 606.322C42.6554 609.894 39.7136 612.73 35.9314 614.832C32.3593 616.933 28.3669 617.983 23.9543 617.983ZM23.9543 491.908C19.5416 491.908 15.4442 490.858 11.6619 488.757C8.08981 486.655 5.25313 483.819 3.15188 480.247C1.05062 476.464 0 472.367 0 467.954C0 463.542 1.05062 459.549 3.15188 455.977C5.25313 452.195 8.08981 449.253 11.6619 447.152C15.4442 445.051 19.5416 444 23.9543 444C28.3669 444 32.3593 445.051 35.9314 447.152C39.7136 449.253 42.6554 452.195 44.7566 455.977C46.8579 459.549 47.9085 463.542 47.9085 467.954C47.9085 472.367 46.8579 476.464 44.7566 480.247C42.6554 483.819 39.7136 486.655 35.9314 488.757C32.3593 490.858 28.3669 491.908 23.9543 491.908ZM55.473 554.946C51.0604 554.946 46.9629 553.895 43.1807 551.794C39.6086 549.693 36.7719 546.856 34.6706 543.284C32.5694 539.502 31.5188 535.404 31.5188 530.992C31.5188 526.579 32.5694 522.587 34.6706 519.015C36.7719 515.232 39.6086 512.291 43.1807 510.189C46.9629 508.088 51.0604 507.038 55.473 507.038C59.8856 507.038 63.878 508.088 67.4501 510.189C71.2324 512.291 74.1741 515.232 76.2754 519.015C78.3766 522.587 79.4273 526.579 79.4273 530.992C79.4273 535.404 78.3766 539.502 76.2754 543.284C74.1741 546.856 71.2324 549.693 67.4501 551.794C63.878 553.895 59.8856 554.946 55.473 554.946Z" fill="white"/>
<path d="M717.984 395.984C713.571 395.984 709.474 394.933 705.692 392.832C702.119 390.73 699.283 387.894 697.182 384.322C695.08 380.539 694.03 376.442 694.03 372.029C694.03 367.617 695.08 363.624 697.182 360.052C699.283 356.27 702.119 353.328 705.692 351.227C709.474 349.126 713.571 348.075 717.984 348.075C722.397 348.075 726.389 349.126 729.961 351.227C733.743 353.328 736.685 356.27 738.786 360.052C740.888 363.624 741.938 367.617 741.938 372.029C741.938 376.442 740.888 380.539 738.786 384.322C736.685 387.894 733.743 390.73 729.961 392.832C726.389 394.933 722.397 395.984 717.984 395.984ZM654.946 269.908C650.534 269.908 646.436 268.858 642.654 266.757C639.082 264.655 636.245 261.819 634.144 258.247C632.043 254.464 630.992 250.367 630.992 245.954C630.992 241.542 632.043 237.549 634.144 233.977C636.245 230.195 639.082 227.253 642.654 225.152C646.436 223.051 650.534 222 654.946 222C659.359 222 663.351 223.051 666.924 225.152C670.706 227.253 673.648 230.195 675.749 233.977C677.85 237.549 678.901 241.542 678.901 245.954C678.901 250.367 677.85 254.464 675.749 258.247C673.648 261.819 670.706 264.655 666.924 266.757C663.351 268.858 659.359 269.908 654.946 269.908ZM654.946 395.984C650.534 395.984 646.436 394.933 642.654 392.832C639.082 390.73 636.245 387.894 634.144 384.322C632.043 380.539 630.992 376.442 630.992 372.029C630.992 367.617 632.043 363.624 634.144 360.052C636.245 356.27 639.082 353.328 642.654 351.227C646.436 349.126 650.534 348.075 654.946 348.075C659.359 348.075 663.351 349.126 666.924 351.227C670.706 353.328 673.648 356.27 675.749 360.052C677.85 363.624 678.901 367.617 678.901 372.029C678.901 376.442 677.85 380.539 675.749 384.322C673.648 387.894 670.706 390.73 666.924 392.832C663.351 394.933 659.359 395.984 654.946 395.984ZM686.465 395.984C682.053 395.984 677.955 394.933 674.173 392.832C670.601 390.73 667.764 387.894 665.663 384.322C663.562 380.539 662.511 376.442 662.511 372.029C662.511 367.617 663.562 363.624 665.663 360.052C667.764 356.27 670.601 353.328 674.173 351.227C677.955 349.126 682.053 348.075 686.465 348.075C690.878 348.075 694.87 349.126 698.442 351.227C702.225 353.328 705.166 356.27 707.268 360.052C709.369 363.624 710.419 367.617 710.419 372.029C710.419 376.442 709.369 380.539 707.268 384.322C705.166 387.894 702.225 390.73 698.442 392.832C694.87 394.933 690.878 395.984 686.465 395.984ZM654.946 301.427C650.534 301.427 646.436 300.377 642.654 298.275C639.082 296.174 636.245 293.337 634.144 289.765C632.043 285.983 630.992 281.886 630.992 277.473C630.992 273.06 632.043 269.068 634.144 265.496C636.245 261.714 639.082 258.772 642.654 256.671C646.436 254.569 650.534 253.519 654.946 253.519C659.359 253.519 663.351 254.569 666.924 256.671C670.706 258.772 673.648 261.714 675.749 265.496C677.85 269.068 678.901 273.06 678.901 277.473C678.901 281.886 677.85 285.983 675.749 289.765C673.648 293.337 670.706 296.174 666.924 298.275C663.351 300.377 659.359 301.427 654.946 301.427ZM654.946 332.946C650.534 332.946 646.436 331.895 642.654 329.794C639.082 327.693 636.245 324.856 634.144 321.284C632.043 317.502 630.992 313.404 630.992 308.992C630.992 304.579 632.043 300.587 634.144 297.015C636.245 293.232 639.082 290.291 642.654 288.189C646.436 286.088 650.534 285.038 654.946 285.038C659.359 285.038 663.351 286.088 666.924 288.189C670.706 290.291 673.648 293.232 675.749 297.015C677.85 300.587 678.901 304.579 678.901 308.992C678.901 313.404 677.85 317.502 675.749 321.284C673.648 324.856 670.706 327.693 666.924 329.794C663.351 331.895 659.359 332.946 654.946 332.946ZM654.946 364.465C650.534 364.465 646.436 363.414 642.654 361.313C639.082 359.212 636.245 356.375 634.144 352.803C632.043 349.021 630.992 344.923 630.992 340.51C630.992 336.098 632.043 332.106 634.144 328.533C636.245 324.751 639.082 321.809 642.654 319.708C646.436 317.607 650.534 316.556 654.946 316.556C659.359 316.556 663.351 317.607 666.924 319.708C670.706 321.809 673.648 324.751 675.749 328.533C677.85 332.106 678.901 336.098 678.901 340.51C678.901 344.923 677.85 349.021 675.749 352.803C673.648 356.375 670.706 359.212 666.924 361.313C663.351 363.414 659.359 364.465 654.946 364.465Z" fill="white"/>
<path d="M591.783 395.984C587.37 395.984 583.273 394.933 579.49 392.832C575.918 390.73 573.082 387.894 570.98 384.322C568.879 380.539 567.829 376.442 567.829 372.029C567.829 367.617 568.879 363.624 570.98 360.052C573.082 356.27 575.918 353.328 579.49 351.227C583.273 349.126 587.37 348.075 591.783 348.075C596.195 348.075 600.188 349.126 603.76 351.227C607.542 353.328 610.484 356.27 612.585 360.052C614.686 363.624 615.737 367.617 615.737 372.029C615.737 376.442 614.686 380.539 612.585 384.322C610.484 387.894 607.542 390.73 603.76 392.832C600.188 394.933 596.195 395.984 591.783 395.984ZM591.783 364.465C587.37 364.465 583.273 363.414 579.49 361.313C575.918 359.212 573.082 356.375 570.98 352.803C568.879 349.021 567.829 344.923 567.829 340.51C567.829 336.098 568.879 332.106 570.98 328.533C573.082 324.751 575.918 321.809 579.49 319.708C583.273 317.607 587.37 316.556 591.783 316.556C596.195 316.556 600.188 317.607 603.76 319.708C607.542 321.809 610.484 324.751 612.585 328.533C614.686 332.106 615.737 336.098 615.737 340.51C615.737 344.923 614.686 349.021 612.585 352.803C610.484 356.375 607.542 359.212 603.76 361.313C600.188 363.414 596.195 364.465 591.783 364.465ZM560.264 269.908C555.851 269.908 551.754 268.858 547.972 266.757C544.4 264.655 541.563 261.819 539.462 258.247C537.36 254.464 536.31 250.367 536.31 245.954C536.31 241.542 537.36 237.549 539.462 233.977C541.563 230.195 544.4 227.253 547.972 225.152C551.754 223.051 555.851 222 560.264 222C564.677 222 568.669 223.051 572.241 225.152C576.023 227.253 578.965 230.195 581.066 233.977C583.168 237.549 584.218 241.542 584.218 245.954C584.218 250.367 583.168 254.464 581.066 258.247C578.965 261.819 576.023 264.655 572.241 266.757C568.669 268.858 564.677 269.908 560.264 269.908ZM591.783 301.427C587.37 301.427 583.273 300.377 579.49 298.275C575.918 296.174 573.082 293.337 570.98 289.765C568.879 285.983 567.829 281.886 567.829 277.473C567.829 273.06 568.879 269.068 570.98 265.496C573.082 261.714 575.918 258.772 579.49 256.671C583.273 254.569 587.37 253.519 591.783 253.519C596.195 253.519 600.188 254.569 603.76 256.671C607.542 258.772 610.484 261.714 612.585 265.496C614.686 269.068 615.737 273.06 615.737 277.473C615.737 281.886 614.686 285.983 612.585 289.765C610.484 293.337 607.542 296.174 603.76 298.275C600.188 300.377 596.195 301.427 591.783 301.427ZM591.783 332.946C587.37 332.946 583.273 331.895 579.49 329.794C575.918 327.693 573.082 324.856 570.98 321.284C568.879 317.502 567.829 313.404 567.829 308.992C567.829 304.579 568.879 300.587 570.98 297.015C573.082 293.232 575.918 290.291 579.49 288.189C583.273 286.088 587.37 285.038 591.783 285.038C596.195 285.038 600.188 286.088 603.76 288.189C607.542 290.291 610.484 293.232 612.585 297.015C614.686 300.587 615.737 304.579 615.737 308.992C615.737 313.404 614.686 317.502 612.585 321.284C610.484 324.856 607.542 327.693 603.76 329.794C600.188 331.895 596.195 332.946 591.783 332.946ZM560.264 332.946C555.851 332.946 551.754 331.895 547.972 329.794C544.4 327.693 541.563 324.856 539.462 321.284C537.36 317.502 536.31 313.404 536.31 308.992C536.31 304.579 537.36 300.587 539.462 297.015C541.563 293.232 544.4 290.291 547.972 288.189C551.754 286.088 555.851 285.038 560.264 285.038C564.677 285.038 568.669 286.088 572.241 288.189C576.023 290.291 578.965 293.232 581.066 297.015C583.168 300.587 584.218 304.579 584.218 308.992C584.218 313.404 583.168 317.502 581.066 321.284C578.965 324.856 576.023 327.693 572.241 329.794C568.669 331.895 564.677 332.946 560.264 332.946ZM528.745 301.427C524.333 301.427 520.235 300.377 516.453 298.275C512.881 296.174 510.044 293.337 507.943 289.765C505.842 285.983 504.791 281.886 504.791 277.473C504.791 273.06 505.842 269.068 507.943 265.496C510.044 261.714 512.881 258.772 516.453 256.671C520.235 254.569 524.333 253.519 528.745 253.519C533.158 253.519 537.15 254.569 540.722 256.671C544.505 258.772 547.446 261.714 549.548 265.496C551.649 269.068 552.7 273.06 552.7 277.473C552.7 281.886 551.649 285.983 549.548 289.765C547.446 293.337 544.505 296.174 540.722 298.275C537.15 300.377 533.158 301.427 528.745 301.427ZM528.745 332.946C524.333 332.946 520.235 331.895 516.453 329.794C512.881 327.693 510.044 324.856 507.943 321.284C505.842 317.502 504.791 313.404 504.791 308.992C504.791 304.579 505.842 300.587 507.943 297.015C510.044 293.232 512.881 290.291 516.453 288.189C520.235 286.088 524.333 285.038 528.745 285.038C533.158 285.038 537.15 286.088 540.722 288.189C544.505 290.291 547.446 293.232 549.548 297.015C551.649 300.587 552.7 304.579 552.7 308.992C552.7 313.404 551.649 317.502 549.548 321.284C547.446 324.856 544.505 327.693 540.722 329.794C537.15 331.895 533.158 332.946 528.745 332.946ZM528.745 364.465C524.333 364.465 520.235 363.414 516.453 361.313C512.881 359.212 510.044 356.375 507.943 352.803C505.842 349.021 504.791 344.923 504.791 340.51C504.791 336.098 505.842 332.106 507.943 328.533C510.044 324.751 512.881 321.809 516.453 319.708C520.235 317.607 524.333 316.556 528.745 316.556C533.158 316.556 537.15 317.607 540.722 319.708C544.505 321.809 547.446 324.751 549.548 328.533C551.649 332.106 552.7 336.098 552.7 340.51C552.7 344.923 551.649 349.021 549.548 352.803C547.446 356.375 544.505 359.212 540.722 361.313C537.15 363.414 533.158 364.465 528.745 364.465ZM528.745 395.984C524.333 395.984 520.235 394.933 516.453 392.832C512.881 390.73 510.044 387.894 507.943 384.322C505.842 380.539 504.791 376.442 504.791 372.029C504.791 367.617 505.842 363.624 507.943 360.052C510.044 356.27 512.881 353.328 516.453 351.227C520.235 349.126 524.333 348.075 528.745 348.075C533.158 348.075 537.15 349.126 540.722 351.227C544.505 353.328 547.446 356.27 549.548 360.052C551.649 363.624 552.7 367.617 552.7 372.029C552.7 376.442 551.649 380.539 549.548 384.322C547.446 387.894 544.505 390.73 540.722 392.832C537.15 394.933 533.158 395.984 528.745 395.984Z" fill="white"/>
<path d="M402.548 269.908C398.135 269.908 394.038 268.858 390.256 266.757C386.684 264.655 383.847 261.819 381.746 258.247C379.644 254.464 378.594 250.367 378.594 245.954C378.594 241.542 379.644 237.549 381.746 233.977C383.847 230.195 386.684 227.253 390.256 225.152C394.038 223.051 398.135 222 402.548 222C406.961 222 410.953 223.051 414.525 225.152C418.307 227.253 421.249 230.195 423.35 233.977C425.452 237.549 426.502 241.542 426.502 245.954C426.502 250.367 425.452 254.464 423.35 258.247C421.249 261.819 418.307 264.655 414.525 266.757C410.953 268.858 406.961 269.908 402.548 269.908ZM402.548 395.984C398.135 395.984 394.038 394.933 390.256 392.832C386.684 390.73 383.847 387.894 381.746 384.322C379.644 380.539 378.594 376.442 378.594 372.029C378.594 367.617 379.644 363.624 381.746 360.052C383.847 356.27 386.684 353.328 390.256 351.227C394.038 349.126 398.135 348.075 402.548 348.075C406.961 348.075 410.953 349.126 414.525 351.227C418.307 353.328 421.249 356.27 423.35 360.052C425.452 363.624 426.502 367.617 426.502 372.029C426.502 376.442 425.452 380.539 423.35 384.322C421.249 387.894 418.307 390.73 414.525 392.832C410.953 394.933 406.961 395.984 402.548 395.984ZM465.586 269.908C461.173 269.908 457.075 268.858 453.293 266.757C449.721 264.655 446.884 261.819 444.783 258.247C442.682 254.464 441.631 250.367 441.631 245.954C441.631 241.542 442.682 237.549 444.783 233.977C446.884 230.195 449.721 227.253 453.293 225.152C457.075 223.051 461.173 222 465.586 222C469.998 222 473.991 223.051 477.563 225.152C481.345 227.253 484.287 230.195 486.388 233.977C488.489 237.549 489.54 241.542 489.54 245.954C489.54 250.367 488.489 254.464 486.388 258.247C484.287 261.819 481.345 264.655 477.563 266.757C473.991 268.858 469.998 269.908 465.586 269.908ZM465.586 395.984C461.173 395.984 457.075 394.933 453.293 392.832C449.721 390.73 446.884 387.894 444.783 384.322C442.682 380.539 441.631 376.442 441.631 372.029C441.631 367.617 442.682 363.624 444.783 360.052C446.884 356.27 449.721 353.328 453.293 351.227C457.075 349.126 461.173 348.075 465.586 348.075C469.998 348.075 473.991 349.126 477.563 351.227C481.345 353.328 484.287 356.27 486.388 360.052C488.489 363.624 489.54 367.617 489.54 372.029C489.54 376.442 488.489 380.539 486.388 384.322C484.287 387.894 481.345 390.73 477.563 392.832C473.991 394.933 469.998 395.984 465.586 395.984ZM434.067 269.908C429.654 269.908 425.557 268.858 421.774 266.757C418.202 264.655 415.366 261.819 413.264 258.247C411.163 254.464 410.113 250.367 410.113 245.954C410.113 241.542 411.163 237.549 413.264 233.977C415.366 230.195 418.202 227.253 421.774 225.152C425.557 223.051 429.654 222 434.067 222C438.479 222 442.472 223.051 446.044 225.152C449.826 227.253 452.768 230.195 454.869 233.977C456.97 237.549 458.021 241.542 458.021 245.954C458.021 250.367 456.97 254.464 454.869 258.247C452.768 261.819 449.826 264.655 446.044 266.757C442.472 268.858 438.479 269.908 434.067 269.908ZM434.067 301.427C429.654 301.427 425.557 300.377 421.774 298.275C418.202 296.174 415.366 293.337 413.264 289.765C411.163 285.983 410.113 281.886 410.113 277.473C410.113 273.06 411.163 269.068 413.264 265.496C415.366 261.714 418.202 258.772 421.774 256.671C425.557 254.569 429.654 253.519 434.067 253.519C438.479 253.519 442.472 254.569 446.044 256.671C449.826 258.772 452.768 261.714 454.869 265.496C456.97 269.068 458.021 273.06 458.021 277.473C458.021 281.886 456.97 285.983 454.869 289.765C452.768 293.337 449.826 296.174 446.044 298.275C442.472 300.377 438.479 301.427 434.067 301.427ZM434.067 332.946C429.654 332.946 425.557 331.895 421.774 329.794C418.202 327.693 415.366 324.856 413.264 321.284C411.163 317.502 410.113 313.404 410.113 308.992C410.113 304.579 411.163 300.587 413.264 297.015C415.366 293.232 418.202 290.291 421.774 288.189C425.557 286.088 429.654 285.038 434.067 285.038C438.479 285.038 442.472 286.088 446.044 288.189C449.826 290.291 452.768 293.232 454.869 297.015C456.97 300.587 458.021 304.579 458.021 308.992C458.021 313.404 456.97 317.502 454.869 321.284C452.768 324.856 449.826 327.693 446.044 329.794C442.472 331.895 438.479 332.946 434.067 332.946ZM434.067 364.465C429.654 364.465 425.557 363.414 421.774 361.313C418.202 359.212 415.366 356.375 413.264 352.803C411.163 349.021 410.113 344.923 410.113 340.51C410.113 336.098 411.163 332.106 413.264 328.533C415.366 324.751 418.202 321.809 421.774 319.708C425.557 317.607 429.654 316.556 434.067 316.556C438.479 316.556 442.472 317.607 446.044 319.708C449.826 321.809 452.768 324.751 454.869 328.533C456.97 332.106 458.021 336.098 458.021 340.51C458.021 344.923 456.97 349.021 454.869 352.803C452.768 356.375 449.826 359.212 446.044 361.313C442.472 363.414 438.479 364.465 434.067 364.465ZM434.067 395.984C429.654 395.984 425.557 394.933 421.774 392.832C418.202 390.73 415.366 387.894 413.264 384.322C411.163 380.539 410.113 376.442 410.113 372.029C410.113 367.617 411.163 363.624 413.264 360.052C415.366 356.27 418.202 353.328 421.774 351.227C425.557 349.126 429.654 348.075 434.067 348.075C438.479 348.075 442.472 349.126 446.044 351.227C449.826 353.328 452.768 356.27 454.869 360.052C456.97 363.624 458.021 367.617 458.021 372.029C458.021 376.442 456.97 380.539 454.869 384.322C452.768 387.894 449.826 390.73 446.044 392.832C442.472 394.933 438.479 395.984 434.067 395.984Z" fill="white"/>
<path d="M339.392 269.908C334.98 269.908 330.882 268.858 327.1 266.757C323.528 264.655 320.691 261.819 318.59 258.247C316.489 254.464 315.438 250.367 315.438 245.954C315.438 241.542 316.489 237.549 318.59 233.977C320.691 230.195 323.528 227.253 327.1 225.152C330.882 223.051 334.98 222 339.392 222C343.805 222 347.797 223.051 351.369 225.152C355.152 227.253 358.093 230.195 360.195 233.977C362.296 237.549 363.346 241.542 363.346 245.954C363.346 250.367 362.296 254.464 360.195 258.247C358.093 261.819 355.152 264.655 351.369 266.757C347.797 268.858 343.805 269.908 339.392 269.908ZM339.392 395.984C334.98 395.984 330.882 394.933 327.1 392.832C323.528 390.73 320.691 387.894 318.59 384.322C316.489 380.539 315.438 376.442 315.438 372.029C315.438 367.617 316.489 363.624 318.59 360.052C320.691 356.27 323.528 353.328 327.1 351.227C330.882 349.126 334.98 348.075 339.392 348.075C343.805 348.075 347.797 349.126 351.369 351.227C355.152 353.328 358.093 356.27 360.195 360.052C362.296 363.624 363.346 367.617 363.346 372.029C363.346 376.442 362.296 380.539 360.195 384.322C358.093 387.894 355.152 390.73 351.369 392.832C347.797 394.933 343.805 395.984 339.392 395.984ZM307.873 269.908C303.461 269.908 299.363 268.858 295.581 266.757C292.009 264.655 289.172 261.819 287.071 258.247C284.97 254.464 283.919 250.367 283.919 245.954C283.919 241.542 284.97 237.549 287.071 233.977C289.172 230.195 292.009 227.253 295.581 225.152C299.363 223.051 303.461 222 307.873 222C312.286 222 316.278 223.051 319.851 225.152C323.633 227.253 326.575 230.195 328.676 233.977C330.777 237.549 331.828 241.542 331.828 245.954C331.828 250.367 330.777 254.464 328.676 258.247C326.575 261.819 323.633 264.655 319.851 266.757C316.278 268.858 312.286 269.908 307.873 269.908ZM276.355 301.427C271.942 301.427 267.845 300.377 264.062 298.275C260.49 296.174 257.654 293.337 255.552 289.765C253.451 285.983 252.4 281.886 252.4 277.473C252.4 273.06 253.451 269.068 255.552 265.496C257.654 261.714 260.49 258.772 264.062 256.671C267.845 254.569 271.942 253.519 276.355 253.519C280.767 253.519 284.76 254.569 288.332 256.671C292.114 258.772 295.056 261.714 297.157 265.496C299.258 269.068 300.309 273.06 300.309 277.473C300.309 281.886 299.258 285.983 297.157 289.765C295.056 293.337 292.114 296.174 288.332 298.275C284.76 300.377 280.767 301.427 276.355 301.427ZM276.355 332.946C271.942 332.946 267.845 331.895 264.062 329.794C260.49 327.693 257.654 324.856 255.552 321.284C253.451 317.502 252.4 313.404 252.4 308.992C252.4 304.579 253.451 300.587 255.552 297.015C257.654 293.232 260.49 290.291 264.062 288.189C267.845 286.088 271.942 285.038 276.355 285.038C280.767 285.038 284.76 286.088 288.332 288.189C292.114 290.291 295.056 293.232 297.157 297.015C299.258 300.587 300.309 304.579 300.309 308.992C300.309 313.404 299.258 317.502 297.157 321.284C295.056 324.856 292.114 327.693 288.332 329.794C284.76 331.895 280.767 332.946 276.355 332.946ZM276.355 364.465C271.942 364.465 267.845 363.414 264.062 361.313C260.49 359.212 257.654 356.375 255.552 352.803C253.451 349.021 252.4 344.923 252.4 340.51C252.4 336.098 253.451 332.106 255.552 328.533C257.654 324.751 260.49 321.809 264.062 319.708C267.845 317.607 271.942 316.556 276.355 316.556C280.767 316.556 284.76 317.607 288.332 319.708C292.114 321.809 295.056 324.751 297.157 328.533C299.258 332.106 300.309 336.098 300.309 340.51C300.309 344.923 299.258 349.021 297.157 352.803C295.056 356.375 292.114 359.212 288.332 361.313C284.76 363.414 280.767 364.465 276.355 364.465ZM307.873 395.984C303.461 395.984 299.363 394.933 295.581 392.832C292.009 390.73 289.172 387.894 287.071 384.322C284.97 380.539 283.919 376.442 283.919 372.029C283.919 367.617 284.97 363.624 287.071 360.052C289.172 356.27 292.009 353.328 295.581 351.227C299.363 349.126 303.461 348.075 307.873 348.075C312.286 348.075 316.278 349.126 319.851 351.227C323.633 353.328 326.575 356.27 328.676 360.052C330.777 363.624 331.828 367.617 331.828 372.029C331.828 376.442 330.777 380.539 328.676 384.322C326.575 387.894 323.633 390.73 319.851 392.832C316.278 394.933 312.286 395.984 307.873 395.984Z" fill="white"/>
<path d="M213.191 364.465C208.778 364.465 204.681 363.414 200.899 361.313C197.327 359.212 194.49 356.375 192.389 352.803C190.287 349.021 189.237 344.923 189.237 340.51C189.237 336.098 190.287 332.106 192.389 328.533C194.49 324.751 197.327 321.809 200.899 319.708C204.681 317.607 208.778 316.556 213.191 316.556C217.604 316.556 221.596 317.607 225.168 319.708C228.95 321.809 231.892 324.751 233.993 328.533C236.095 332.106 237.145 336.098 237.145 340.51C237.145 344.923 236.095 349.021 233.993 352.803C231.892 356.375 228.95 359.212 225.168 361.313C221.596 363.414 217.604 364.465 213.191 364.465ZM213.191 332.946C208.778 332.946 204.681 331.895 200.899 329.794C197.327 327.693 194.49 324.856 192.389 321.284C190.287 317.502 189.237 313.404 189.237 308.992C189.237 304.579 190.287 300.587 192.389 297.015C194.49 293.232 197.327 290.291 200.899 288.189C204.681 286.088 208.778 285.038 213.191 285.038C217.604 285.038 221.596 286.088 225.168 288.189C228.95 290.291 231.892 293.232 233.993 297.015C236.095 300.587 237.145 304.579 237.145 308.992C237.145 313.404 236.095 317.502 233.993 321.284C231.892 324.856 228.95 327.693 225.168 329.794C221.596 331.895 217.604 332.946 213.191 332.946ZM213.191 301.427C208.778 301.427 204.681 300.377 200.899 298.275C197.327 296.174 194.49 293.337 192.389 289.765C190.287 285.983 189.237 281.886 189.237 277.473C189.237 273.06 190.287 269.068 192.389 265.496C194.49 261.714 197.327 258.772 200.899 256.671C204.681 254.569 208.778 253.519 213.191 253.519C217.604 253.519 221.596 254.569 225.168 256.671C228.95 258.772 231.892 261.714 233.993 265.496C236.095 269.068 237.145 273.06 237.145 277.473C237.145 281.886 236.095 285.983 233.993 289.765C231.892 293.337 228.95 296.174 225.168 298.275C221.596 300.377 217.604 301.427 213.191 301.427ZM181.672 269.908C177.26 269.908 173.162 268.858 169.38 266.757C165.808 264.655 162.971 261.819 160.87 258.247C158.769 254.464 157.718 250.367 157.718 245.954C157.718 241.542 158.769 237.549 160.87 233.977C162.971 230.195 165.808 227.253 169.38 225.152C173.162 223.051 177.26 222 181.672 222C186.085 222 190.077 223.051 193.649 225.152C197.432 227.253 200.373 230.195 202.475 233.977C204.576 237.549 205.626 241.542 205.626 245.954C205.626 250.367 204.576 254.464 202.475 258.247C200.373 261.819 197.432 264.655 193.649 266.757C190.077 268.858 186.085 269.908 181.672 269.908ZM150.153 301.427C145.741 301.427 141.643 300.377 137.861 298.275C134.289 296.174 131.452 293.337 129.351 289.765C127.25 285.983 126.199 281.886 126.199 277.473C126.199 273.06 127.25 269.068 129.351 265.496C131.452 261.714 134.289 258.772 137.861 256.671C141.643 254.569 145.741 253.519 150.153 253.519C154.566 253.519 158.558 254.569 162.131 256.671C165.913 258.772 168.855 261.714 170.956 265.496C173.057 269.068 174.108 273.06 174.108 277.473C174.108 281.886 173.057 285.983 170.956 289.765C168.855 293.337 165.913 296.174 162.131 298.275C158.558 300.377 154.566 301.427 150.153 301.427ZM150.153 332.946C145.741 332.946 141.643 331.895 137.861 329.794C134.289 327.693 131.452 324.856 129.351 321.284C127.25 317.502 126.199 313.404 126.199 308.992C126.199 304.579 127.25 300.587 129.351 297.015C131.452 293.232 134.289 290.291 137.861 288.189C141.643 286.088 145.741 285.038 150.153 285.038C154.566 285.038 158.558 286.088 162.131 288.189C165.913 290.291 168.855 293.232 170.956 297.015C173.057 300.587 174.108 304.579 174.108 308.992C174.108 313.404 173.057 317.502 170.956 321.284C168.855 324.856 165.913 327.693 162.131 329.794C158.558 331.895 154.566 332.946 150.153 332.946ZM150.153 364.465C145.741 364.465 141.643 363.414 137.861 361.313C134.289 359.212 131.452 356.375 129.351 352.803C127.25 349.021 126.199 344.923 126.199 340.51C126.199 336.098 127.25 332.106 129.351 328.533C131.452 324.751 134.289 321.809 137.861 319.708C141.643 317.607 145.741 316.556 150.153 316.556C154.566 316.556 158.558 317.607 162.131 319.708C165.913 321.809 168.855 324.751 170.956 328.533C173.057 332.106 174.108 336.098 174.108 340.51C174.108 344.923 173.057 349.021 170.956 352.803C168.855 356.375 165.913 359.212 162.131 361.313C158.558 363.414 154.566 364.465 150.153 364.465ZM181.672 395.984C177.26 395.984 173.162 394.933 169.38 392.832C165.808 390.73 162.971 387.894 160.87 384.322C158.769 380.539 157.718 376.442 157.718 372.029C157.718 367.617 158.769 363.624 160.87 360.052C162.971 356.27 165.808 353.328 169.38 351.227C173.162 349.126 177.26 348.075 181.672 348.075C186.085 348.075 190.077 349.126 193.649 351.227C197.432 353.328 200.373 356.27 202.475 360.052C204.576 363.624 205.626 367.617 205.626 372.029C205.626 376.442 204.576 380.539 202.475 384.322C200.373 387.894 197.432 390.73 193.649 392.832C190.077 394.933 186.085 395.984 181.672 395.984Z" fill="white"/>
<path d="M55.473 395.984C51.0604 395.984 46.9629 394.933 43.1807 392.832C39.6086 390.73 36.7719 387.894 34.6706 384.322C32.5694 380.539 31.5188 376.442 31.5188 372.029C31.5188 367.617 32.5694 363.624 34.6706 360.052C36.7719 356.27 39.6086 353.328 43.1807 351.227C46.9629 349.126 51.0604 348.075 55.473 348.075C59.8856 348.075 63.878 349.126 67.4501 351.227C71.2324 353.328 74.1741 356.27 76.2754 360.052C78.3766 363.624 79.4273 367.617 79.4273 372.029C79.4273 376.442 78.3766 380.539 76.2754 384.322C74.1741 387.894 71.2324 390.73 67.4501 392.832C63.878 394.933 59.8856 395.984 55.473 395.984ZM86.9918 364.465C82.5791 364.465 78.4817 363.414 74.6994 361.313C71.1273 359.212 68.2906 356.375 66.1894 352.803C64.0881 349.021 63.0375 344.923 63.0375 340.51C63.0375 336.098 64.0881 332.106 66.1894 328.533C68.2906 324.751 71.1273 321.809 74.6994 319.708C78.4817 317.607 82.5791 316.556 86.9918 316.556C91.4044 316.556 95.3968 317.607 98.9689 319.708C102.751 321.809 105.693 324.751 107.794 328.533C109.895 332.106 110.946 336.098 110.946 340.51C110.946 344.923 109.895 349.021 107.794 352.803C105.693 356.375 102.751 359.212 98.9689 361.313C95.3968 363.414 91.4044 364.465 86.9918 364.465ZM86.9918 269.908C82.5791 269.908 78.4817 268.858 74.6994 266.757C71.1273 264.655 68.2906 261.819 66.1894 258.247C64.0881 254.464 63.0375 250.367 63.0375 245.954C63.0375 241.542 64.0881 237.549 66.1894 233.977C68.2906 230.195 71.1273 227.253 74.6994 225.152C78.4817 223.051 82.5791 222 86.9918 222C91.4044 222 95.3968 223.051 98.9689 225.152C102.751 227.253 105.693 230.195 107.794 233.977C109.895 237.549 110.946 241.542 110.946 245.954C110.946 250.367 109.895 254.464 107.794 258.247C105.693 261.819 102.751 264.655 98.9689 266.757C95.3968 268.858 91.4044 269.908 86.9918 269.908ZM55.473 332.946C51.0604 332.946 46.9629 331.895 43.1807 329.794C39.6086 327.693 36.7719 324.856 34.6706 321.284C32.5694 317.502 31.5188 313.404 31.5188 308.992C31.5188 304.579 32.5694 300.587 34.6706 297.015C36.7719 293.232 39.6086 290.291 43.1807 288.189C46.9629 286.088 51.0604 285.038 55.473 285.038C59.8856 285.038 63.878 286.088 67.4501 288.189C71.2324 290.291 74.1741 293.232 76.2754 297.015C78.3766 300.587 79.4273 304.579 79.4273 308.992C79.4273 313.404 78.3766 317.502 76.2754 321.284C74.1741 324.856 71.2324 327.693 67.4501 329.794C63.878 331.895 59.8856 332.946 55.473 332.946ZM23.9543 395.984C19.5416 395.984 15.4442 394.933 11.6619 392.832C8.08981 390.73 5.25313 387.894 3.15188 384.322C1.05062 380.539 0 376.442 0 372.029C0 367.617 1.05062 363.624 3.15188 360.052C5.25313 356.27 8.08981 353.328 11.6619 351.227C15.4442 349.126 19.5416 348.075 23.9543 348.075C28.3669 348.075 32.3593 349.126 35.9314 351.227C39.7136 353.328 42.6554 356.27 44.7566 360.052C46.8579 363.624 47.9085 367.617 47.9085 372.029C47.9085 376.442 46.8579 380.539 44.7566 384.322C42.6554 387.894 39.7136 390.73 35.9314 392.832C32.3593 394.933 28.3669 395.984 23.9543 395.984ZM55.473 269.908C51.0604 269.908 46.9629 268.858 43.1807 266.757C39.6086 264.655 36.7719 261.819 34.6706 258.247C32.5694 254.464 31.5188 250.367 31.5188 245.954C31.5188 241.542 32.5694 237.549 34.6706 233.977C36.7719 230.195 39.6086 227.253 43.1807 225.152C46.9629 223.051 51.0604 222 55.473 222C59.8856 222 63.878 223.051 67.4501 225.152C71.2324 227.253 74.1741 230.195 76.2754 233.977C78.3766 237.549 79.4273 241.542 79.4273 245.954C79.4273 250.367 78.3766 254.464 76.2754 258.247C74.1741 261.819 71.2324 264.655 67.4501 266.757C63.878 268.858 59.8856 269.908 55.473 269.908ZM23.9543 301.427C19.5416 301.427 15.4442 300.377 11.6619 298.275C8.08981 296.174 5.25313 293.337 3.15188 289.765C1.05062 285.983 0 281.886 0 277.473C0 273.06 1.05062 269.068 3.15188 265.496C5.25313 261.714 8.08981 258.772 11.6619 256.671C15.4442 254.569 19.5416 253.519 23.9543 253.519C28.3669 253.519 32.3593 254.569 35.9314 256.671C39.7136 258.772 42.6554 261.714 44.7566 265.496C46.8579 269.068 47.9085 273.06 47.9085 277.473C47.9085 281.886 46.8579 285.983 44.7566 289.765C42.6554 293.337 39.7136 296.174 35.9314 298.275C32.3593 300.377 28.3669 301.427 23.9543 301.427Z" fill="white"/>
<path d="M339.392 173.984C334.98 173.984 330.882 172.933 327.1 170.832C323.528 168.73 320.691 165.894 318.59 162.322C316.489 158.539 315.438 154.442 315.438 150.029C315.438 145.617 316.489 141.624 318.59 138.052C320.691 134.27 323.528 131.328 327.1 129.227C330.882 127.126 334.98 126.075 339.392 126.075C343.805 126.075 347.797 127.126 351.369 129.227C355.152 131.328 358.093 134.27 360.195 138.052C362.296 141.624 363.346 145.617 363.346 150.029C363.346 154.442 362.296 158.539 360.195 162.322C358.093 165.894 355.152 168.73 351.369 170.832C347.797 172.933 343.805 173.984 339.392 173.984ZM339.392 142.465C334.98 142.465 330.882 141.414 327.1 139.313C323.528 137.212 320.691 134.375 318.59 130.803C316.489 127.021 315.438 122.923 315.438 118.511C315.438 114.098 316.489 110.105 318.59 106.533C320.691 102.751 323.528 99.8094 327.1 97.7081C330.882 95.6069 334.98 94.5562 339.392 94.5562C343.805 94.5562 347.797 95.6069 351.369 97.7081C355.152 99.8094 358.093 102.751 360.195 106.533C362.296 110.105 363.346 114.098 363.346 118.511C363.346 122.923 362.296 127.021 360.195 130.803C358.093 134.375 355.152 137.212 351.369 139.313C347.797 141.414 343.805 142.465 339.392 142.465ZM339.392 47.9085C334.98 47.9085 330.882 46.8579 327.1 44.7566C323.528 42.6554 320.691 39.8187 318.59 36.2466C316.489 32.4643 315.438 28.3669 315.438 23.9542C315.438 19.5416 316.489 15.5492 318.59 11.9771C320.691 8.19487 323.528 5.25312 327.1 3.15187C330.882 1.05062 334.98 0 339.392 0C343.805 0 347.797 1.05062 351.369 3.15187C355.152 5.25312 358.093 8.19487 360.195 11.9771C362.296 15.5492 363.346 19.5416 363.346 23.9542C363.346 28.3669 362.296 32.4643 360.195 36.2466C358.093 39.8187 355.152 42.6554 351.369 44.7566C347.797 46.8579 343.805 47.9085 339.392 47.9085ZM339.392 79.4272C334.98 79.4272 330.882 78.3766 327.1 76.2754C323.528 74.1741 320.691 71.3374 318.59 67.7653C316.489 63.9831 315.438 59.8856 315.438 55.473C315.438 51.0604 316.489 47.068 318.59 43.4959C320.691 39.7136 323.528 36.7719 327.1 34.6706C330.882 32.5694 334.98 31.5187 339.392 31.5187C343.805 31.5187 347.797 32.5694 351.369 34.6706C355.152 36.7719 358.093 39.7136 360.195 43.4959C362.296 47.068 363.346 51.0604 363.346 55.473C363.346 59.8856 362.296 63.9831 360.195 67.7653C358.093 71.3374 355.152 74.1741 351.369 76.2754C347.797 78.3766 343.805 79.4272 339.392 79.4272ZM339.392 110.946C334.98 110.946 330.882 109.895 327.1 107.794C323.528 105.693 320.691 102.856 318.59 99.2841C316.489 95.5018 315.438 91.4044 315.438 86.9918C315.438 82.5791 316.489 78.5868 318.59 75.0146C320.691 71.2324 323.528 68.2906 327.1 66.1894C330.882 64.0881 334.98 63.0375 339.392 63.0375C343.805 63.0375 347.797 64.0881 351.369 66.1894C355.152 68.2906 358.093 71.2324 360.195 75.0146C362.296 78.5868 363.346 82.5791 363.346 86.9918C363.346 91.4044 362.296 95.5018 360.195 99.2841C358.093 102.856 355.152 105.693 351.369 107.794C347.797 109.895 343.805 110.946 339.392 110.946ZM307.873 142.465C303.461 142.465 299.363 141.414 295.581 139.313C292.009 137.212 289.172 134.375 287.071 130.803C284.97 127.021 283.919 122.923 283.919 118.511C283.919 114.098 284.97 110.105 287.071 106.533C289.172 102.751 292.009 99.8094 295.581 97.7081C299.363 95.6069 303.461 94.5562 307.873 94.5562C312.286 94.5562 316.278 95.6069 319.851 97.7081C323.633 99.8094 326.575 102.751 328.676 106.533C330.777 110.105 331.828 114.098 331.828 118.511C331.828 122.923 330.777 127.021 328.676 130.803C326.575 134.375 323.633 137.212 319.851 139.313C316.278 141.414 312.286 142.465 307.873 142.465ZM276.355 47.9085C271.942 47.9085 267.845 46.8579 264.062 44.7566C260.49 42.6554 257.654 39.8187 255.552 36.2466C253.451 32.4643 252.4 28.3669 252.4 23.9542C252.4 19.5416 253.451 15.5492 255.552 11.9771C257.654 8.19487 260.49 5.25312 264.062 3.15187C267.845 1.05062 271.942 0 276.355 0C280.767 0 284.76 1.05062 288.332 3.15187C292.114 5.25312 295.056 8.19487 297.157 11.9771C299.258 15.5492 300.309 19.5416 300.309 23.9542C300.309 28.3669 299.258 32.4643 297.157 36.2466C295.056 39.8187 292.114 42.6554 288.332 44.7566C284.76 46.8579 280.767 47.9085 276.355 47.9085ZM276.355 79.4272C271.942 79.4272 267.845 78.3766 264.062 76.2754C260.49 74.1741 257.654 71.3374 255.552 67.7653C253.451 63.9831 252.4 59.8856 252.4 55.473C252.4 51.0604 253.451 47.068 255.552 43.4959C257.654 39.7136 260.49 36.7719 264.062 34.6706C267.845 32.5694 271.942 31.5187 276.355 31.5187C280.767 31.5187 284.76 32.5694 288.332 34.6706C292.114 36.7719 295.056 39.7136 297.157 43.4959C299.258 47.068 300.309 51.0604 300.309 55.473C300.309 59.8856 299.258 63.9831 297.157 67.7653C295.056 71.3374 292.114 74.1741 288.332 76.2754C284.76 78.3766 280.767 79.4272 276.355 79.4272ZM276.355 110.946C271.942 110.946 267.845 109.895 264.062 107.794C260.49 105.693 257.654 102.856 255.552 99.2841C253.451 95.5018 252.4 91.4044 252.4 86.9918C252.4 82.5791 253.451 78.5868 255.552 75.0146C257.654 71.2324 260.49 68.2906 264.062 66.1894C267.845 64.0881 271.942 63.0375 276.355 63.0375C280.767 63.0375 284.76 64.0881 288.332 66.1894C292.114 68.2906 295.056 71.2324 297.157 75.0146C299.258 78.5868 300.309 82.5791 300.309 86.9918C300.309 91.4044 299.258 95.5018 297.157 99.2841C295.056 102.856 292.114 105.693 288.332 107.794C284.76 109.895 280.767 110.946 276.355 110.946ZM276.355 142.465C271.942 142.465 267.845 141.414 264.062 139.313C260.49 137.212 257.654 134.375 255.552 130.803C253.451 127.021 252.4 122.923 252.4 118.511C252.4 114.098 253.451 110.105 255.552 106.533C257.654 102.751 260.49 99.8094 264.062 97.7081C267.845 95.6069 271.942 94.5562 276.355 94.5562C280.767 94.5562 284.76 95.6069 288.332 97.7081C292.114 99.8094 295.056 102.751 297.157 106.533C299.258 110.105 300.309 114.098 300.309 118.511C300.309 122.923 299.258 127.021 297.157 130.803C295.056 134.375 292.114 137.212 288.332 139.313C284.76 141.414 280.767 142.465 276.355 142.465ZM276.355 173.984C271.942 173.984 267.845 172.933 264.062 170.832C260.49 168.73 257.654 165.894 255.552 162.322C253.451 158.539 252.4 154.442 252.4 150.029C252.4 145.617 253.451 141.624 255.552 138.052C257.654 134.27 260.49 131.328 264.062 129.227C267.845 127.126 271.942 126.075 276.355 126.075C280.767 126.075 284.76 127.126 288.332 129.227C292.114 131.328 295.056 134.27 297.157 138.052C299.258 141.624 300.309 145.617 300.309 150.029C300.309 154.442 299.258 158.539 297.157 162.322C295.056 165.894 292.114 168.73 288.332 170.832C284.76 172.933 280.767 173.984 276.355 173.984Z" fill="white"/>
<path d="M213.191 110.946C208.778 110.946 204.681 109.895 200.899 107.794C197.327 105.693 194.49 102.856 192.389 99.2841C190.287 95.5018 189.237 91.4044 189.237 86.9918C189.237 82.5791 190.287 78.5868 192.389 75.0146C194.49 71.2324 197.327 68.2906 200.899 66.1894C204.681 64.0881 208.778 63.0375 213.191 63.0375C217.604 63.0375 221.596 64.0881 225.168 66.1894C228.95 68.2906 231.892 71.2324 233.993 75.0146C236.095 78.5868 237.145 82.5791 237.145 86.9918C237.145 91.4044 236.095 95.5018 233.993 99.2841C231.892 102.856 228.95 105.693 225.168 107.794C221.596 109.895 217.604 110.946 213.191 110.946ZM213.191 47.9085C208.778 47.9085 204.681 46.8579 200.899 44.7566C197.327 42.6554 194.49 39.8187 192.389 36.2466C190.287 32.4643 189.237 28.3669 189.237 23.9542C189.237 19.5416 190.287 15.5492 192.389 11.9771C194.49 8.19487 197.327 5.25312 200.899 3.15187C204.681 1.05062 208.778 0 213.191 0C217.604 0 221.596 1.05062 225.168 3.15187C228.95 5.25312 231.892 8.19487 233.993 11.9771C236.095 15.5492 237.145 19.5416 237.145 23.9542C237.145 28.3669 236.095 32.4643 233.993 36.2466C231.892 39.8187 228.95 42.6554 225.168 44.7566C221.596 46.8579 217.604 47.9085 213.191 47.9085ZM213.191 173.984C208.778 173.984 204.681 172.933 200.899 170.832C197.327 168.73 194.49 165.894 192.389 162.322C190.287 158.539 189.237 154.442 189.237 150.029C189.237 145.617 190.287 141.624 192.389 138.052C194.49 134.27 197.327 131.328 200.899 129.227C204.681 127.126 208.778 126.075 213.191 126.075C217.604 126.075 221.596 127.126 225.168 129.227C228.95 131.328 231.892 134.27 233.993 138.052C236.095 141.624 237.145 145.617 237.145 150.029C237.145 154.442 236.095 158.539 233.993 162.322C231.892 165.894 228.95 168.73 225.168 170.832C221.596 172.933 217.604 173.984 213.191 173.984ZM150.153 142.465C145.741 142.465 141.643 141.414 137.861 139.313C134.289 137.212 131.452 134.375 129.351 130.803C127.25 127.021 126.199 122.923 126.199 118.511C126.199 114.098 127.25 110.105 129.351 106.533C131.452 102.751 134.289 99.8094 137.861 97.7081C141.643 95.6069 145.741 94.5562 150.153 94.5562C154.566 94.5562 158.558 95.6069 162.131 97.7081C165.913 99.8094 168.855 102.751 170.956 106.533C173.057 110.105 174.108 114.098 174.108 118.511C174.108 122.923 173.057 127.021 170.956 130.803C168.855 134.375 165.913 137.212 162.131 139.313C158.558 141.414 154.566 142.465 150.153 142.465ZM150.153 110.946C145.741 110.946 141.643 109.895 137.861 107.794C134.289 105.693 131.452 102.856 129.351 99.2841C127.25 95.5018 126.199 91.4044 126.199 86.9918C126.199 82.5791 127.25 78.5868 129.351 75.0146C131.452 71.2324 134.289 68.2906 137.861 66.1894C141.643 64.0881 145.741 63.0375 150.153 63.0375C154.566 63.0375 158.558 64.0881 162.131 66.1894C165.913 68.2906 168.855 71.2324 170.956 75.0146C173.057 78.5868 174.108 82.5791 174.108 86.9918C174.108 91.4044 173.057 95.5018 170.956 99.2841C168.855 102.856 165.913 105.693 162.131 107.794C158.558 109.895 154.566 110.946 150.153 110.946ZM150.153 79.4272C145.741 79.4272 141.643 78.3766 137.861 76.2754C134.289 74.1741 131.452 71.3374 129.351 67.7653C127.25 63.9831 126.199 59.8856 126.199 55.473C126.199 51.0604 127.25 47.068 129.351 43.4959C131.452 39.7136 134.289 36.7719 137.861 34.6706C141.643 32.5694 145.741 31.5187 150.153 31.5187C154.566 31.5187 158.558 32.5694 162.131 34.6706C165.913 36.7719 168.855 39.7136 170.956 43.4959C173.057 47.068 174.108 51.0604 174.108 55.473C174.108 59.8856 173.057 63.9831 170.956 67.7653C168.855 71.3374 165.913 74.1741 162.131 76.2754C158.558 78.3766 154.566 79.4272 150.153 79.4272ZM181.672 173.984C177.26 173.984 173.162 172.933 169.38 170.832C165.808 168.73 162.971 165.894 160.87 162.322C158.769 158.539 157.718 154.442 157.718 150.029C157.718 145.617 158.769 141.624 160.87 138.052C162.971 134.27 165.808 131.328 169.38 129.227C173.162 127.126 177.26 126.075 181.672 126.075C186.085 126.075 190.077 127.126 193.649 129.227C197.432 131.328 200.373 134.27 202.475 138.052C204.576 141.624 205.626 145.617 205.626 150.029C205.626 154.442 204.576 158.539 202.475 162.322C200.373 165.894 197.432 168.73 193.649 170.832C190.077 172.933 186.085 173.984 181.672 173.984ZM181.672 47.9085C177.26 47.9085 173.162 46.8579 169.38 44.7566C165.808 42.6554 162.971 39.8187 160.87 36.2466C158.769 32.4643 157.718 28.3669 157.718 23.9542C157.718 19.5416 158.769 15.5492 160.87 11.9771C162.971 8.19487 165.808 5.25312 169.38 3.15187C173.162 1.05062 177.26 0 181.672 0C186.085 0 190.077 1.05062 193.649 3.15187C197.432 5.25312 200.373 8.19487 202.475 11.9771C204.576 15.5492 205.626 19.5416 205.626 23.9542C205.626 28.3669 204.576 32.4643 202.475 36.2466C200.373 39.8187 197.432 42.6554 193.649 44.7566C190.077 46.8579 186.085 47.9085 181.672 47.9085ZM150.153 173.984C145.741 173.984 141.643 172.933 137.861 170.832C134.289 168.73 131.452 165.894 129.351 162.322C127.25 158.539 126.199 154.442 126.199 150.029C126.199 145.617 127.25 141.624 129.351 138.052C131.452 134.27 134.289 131.328 137.861 129.227C141.643 127.126 145.741 126.075 150.153 126.075C154.566 126.075 158.558 127.126 162.131 129.227C165.913 131.328 168.855 134.27 170.956 138.052C173.057 141.624 174.108 145.617 174.108 150.029C174.108 154.442 173.057 158.539 170.956 162.322C168.855 165.894 165.913 168.73 162.131 170.832C158.558 172.933 154.566 173.984 150.153 173.984ZM150.153 47.9085C145.741 47.9085 141.643 46.8579 137.861 44.7566C134.289 42.6554 131.452 39.8187 129.351 36.2466C127.25 32.4643 126.199 28.3669 126.199 23.9542C126.199 19.5416 127.25 15.5492 129.351 11.9771C131.452 8.19487 134.289 5.25312 137.861 3.15187C141.643 1.05062 145.741 0 150.153 0C154.566 0 158.558 1.05062 162.131 3.15187C165.913 5.25312 168.855 8.19487 170.956 11.9771C173.057 15.5492 174.108 19.5416 174.108 23.9542C174.108 28.3669 173.057 32.4643 170.956 36.2466C168.855 39.8187 165.913 42.6554 162.131 44.7566C158.558 46.8579 154.566 47.9085 150.153 47.9085ZM181.672 110.946C177.26 110.946 173.162 109.895 169.38 107.794C165.808 105.693 162.971 102.856 160.87 99.2841C158.769 95.5018 157.718 91.4044 157.718 86.9918C157.718 82.5791 158.769 78.5868 160.87 75.0146C162.971 71.2324 165.808 68.2906 169.38 66.1894C173.162 64.0881 177.26 63.0375 181.672 63.0375C186.085 63.0375 190.077 64.0881 193.649 66.1894C197.432 68.2906 200.373 71.2324 202.475 75.0146C204.576 78.5868 205.626 82.5791 205.626 86.9918C205.626 91.4044 204.576 95.5018 202.475 99.2841C200.373 102.856 197.432 105.693 193.649 107.794C190.077 109.895 186.085 110.946 181.672 110.946Z" fill="white"/>
<path d="M86.9918 173.984C82.5791 173.984 78.4817 172.933 74.6994 170.832C71.1273 168.73 68.2906 165.894 66.1894 162.322C64.0881 158.539 63.0375 154.442 63.0375 150.029C63.0375 145.617 64.0881 141.624 66.1894 138.052C68.2906 134.27 71.1273 131.328 74.6994 129.227C78.4817 127.126 82.5791 126.075 86.9918 126.075C91.4044 126.075 95.3968 127.126 98.9689 129.227C102.751 131.328 105.693 134.27 107.794 138.052C109.895 141.624 110.946 145.617 110.946 150.029C110.946 154.442 109.895 158.539 107.794 162.322C105.693 165.894 102.751 168.73 98.9689 170.832C95.3968 172.933 91.4044 173.984 86.9918 173.984ZM86.9918 142.465C82.5791 142.465 78.4817 141.414 74.6994 139.313C71.1273 137.212 68.2906 134.375 66.1894 130.803C64.0881 127.021 63.0375 122.923 63.0375 118.511C63.0375 114.098 64.0881 110.105 66.1894 106.533C68.2906 102.751 71.1273 99.8094 74.6994 97.7081C78.4817 95.6069 82.5791 94.5562 86.9918 94.5562C91.4044 94.5562 95.3968 95.6069 98.9689 97.7081C102.751 99.8094 105.693 102.751 107.794 106.533C109.895 110.105 110.946 114.098 110.946 118.511C110.946 122.923 109.895 127.021 107.794 130.803C105.693 134.375 102.751 137.212 98.9689 139.313C95.3968 141.414 91.4044 142.465 86.9918 142.465ZM86.9918 110.946C82.5791 110.946 78.4817 109.895 74.6994 107.794C71.1273 105.693 68.2906 102.856 66.1894 99.2841C64.0881 95.5018 63.0375 91.4044 63.0375 86.9918C63.0375 82.5791 64.0881 78.5868 66.1894 75.0146C68.2906 71.2324 71.1273 68.2906 74.6994 66.1894C78.4817 64.0881 82.5791 63.0375 86.9918 63.0375C91.4044 63.0375 95.3968 64.0881 98.9689 66.1894C102.751 68.2906 105.693 71.2324 107.794 75.0146C109.895 78.5868 110.946 82.5791 110.946 86.9918C110.946 91.4044 109.895 95.5018 107.794 99.2841C105.693 102.856 102.751 105.693 98.9689 107.794C95.3968 109.895 91.4044 110.946 86.9918 110.946ZM86.9918 79.4272C82.5791 79.4272 78.4817 78.3766 74.6994 76.2754C71.1273 74.1741 68.2906 71.3374 66.1894 67.7653C64.0881 63.9831 63.0375 59.8856 63.0375 55.473C63.0375 51.0604 64.0881 47.068 66.1894 43.4959C68.2906 39.7136 71.1273 36.7719 74.6994 34.6706C78.4817 32.5694 82.5791 31.5187 86.9918 31.5187C91.4044 31.5187 95.3968 32.5694 98.9689 34.6706C102.751 36.7719 105.693 39.7136 107.794 43.4959C109.895 47.068 110.946 51.0604 110.946 55.473C110.946 59.8856 109.895 63.9831 107.794 67.7653C105.693 71.3374 102.751 74.1741 98.9689 76.2754C95.3968 78.3766 91.4044 79.4272 86.9918 79.4272ZM55.473 47.9085C51.0604 47.9085 46.9629 46.8579 43.1807 44.7566C39.6086 42.6554 36.7719 39.8187 34.6706 36.2466C32.5694 32.4643 31.5188 28.3669 31.5188 23.9542C31.5188 19.5416 32.5694 15.5492 34.6706 11.9771C36.7719 8.19487 39.6086 5.25312 43.1807 3.15187C46.9629 1.05062 51.0604 0 55.473 0C59.8856 0 63.878 1.05062 67.4501 3.15187C71.2324 5.25312 74.1741 8.19487 76.2754 11.9771C78.3766 15.5492 79.4273 19.5416 79.4273 23.9542C79.4273 28.3669 78.3766 32.4643 76.2754 36.2466C74.1741 39.8187 71.2324 42.6554 67.4501 44.7566C63.878 46.8579 59.8856 47.9085 55.473 47.9085ZM23.9543 47.9085C19.5416 47.9085 15.4442 46.8579 11.6619 44.7566C8.08981 42.6554 5.25313 39.8187 3.15188 36.2466C1.05062 32.4643 0 28.3669 0 23.9542C0 19.5416 1.05062 15.5492 3.15188 11.9771C5.25313 8.19487 8.08981 5.25312 11.6619 3.15187C15.4442 1.05062 19.5416 0 23.9543 0C28.3669 0 32.3593 1.05062 35.9314 3.15187C39.7136 5.25312 42.6554 8.19487 44.7566 11.9771C46.8579 15.5492 47.9085 19.5416 47.9085 23.9542C47.9085 28.3669 46.8579 32.4643 44.7566 36.2466C42.6554 39.8187 39.7136 42.6554 35.9314 44.7566C32.3593 46.8579 28.3669 47.9085 23.9543 47.9085ZM23.9543 79.4272C19.5416 79.4272 15.4442 78.3766 11.6619 76.2754C8.08981 74.1741 5.25313 71.3374 3.15188 67.7653C1.05062 63.9831 0 59.8856 0 55.473C0 51.0604 1.05062 47.068 3.15188 43.4959C5.25313 39.7136 8.08981 36.7719 11.6619 34.6706C15.4442 32.5694 19.5416 31.5187 23.9543 31.5187C28.3669 31.5187 32.3593 32.5694 35.9314 34.6706C39.7136 36.7719 42.6554 39.7136 44.7566 43.4959C46.8579 47.068 47.9085 51.0604 47.9085 55.473C47.9085 59.8856 46.8579 63.9831 44.7566 67.7653C42.6554 71.3374 39.7136 74.1741 35.9314 76.2754C32.3593 78.3766 28.3669 79.4272 23.9543 79.4272ZM23.9543 110.946C19.5416 110.946 15.4442 109.895 11.6619 107.794C8.08981 105.693 5.25313 102.856 3.15188 99.2841C1.05062 95.5018 0 91.4044 0 86.9918C0 82.5791 1.05062 78.5868 3.15188 75.0146C5.25313 71.2324 8.08981 68.2906 11.6619 66.1894C15.4442 64.0881 19.5416 63.0375 23.9543 63.0375C28.3669 63.0375 32.3593 64.0881 35.9314 66.1894C39.7136 68.2906 42.6554 71.2324 44.7566 75.0146C46.8579 78.5868 47.9085 82.5791 47.9085 86.9918C47.9085 91.4044 46.8579 95.5018 44.7566 99.2841C42.6554 102.856 39.7136 105.693 35.9314 107.794C32.3593 109.895 28.3669 110.946 23.9543 110.946ZM23.9543 142.465C19.5416 142.465 15.4442 141.414 11.6619 139.313C8.08981 137.212 5.25313 134.375 3.15188 130.803C1.05062 127.021 0 122.923 0 118.511C0 114.098 1.05062 110.105 3.15188 106.533C5.25313 102.751 8.08981 99.8094 11.6619 97.7081C15.4442 95.6069 19.5416 94.5562 23.9543 94.5562C28.3669 94.5562 32.3593 95.6069 35.9314 97.7081C39.7136 99.8094 42.6554 102.751 44.7566 106.533C46.8579 110.105 47.9085 114.098 47.9085 118.511C47.9085 122.923 46.8579 127.021 44.7566 130.803C42.6554 134.375 39.7136 137.212 35.9314 139.313C32.3593 141.414 28.3669 142.465 23.9543 142.465ZM23.9543 173.984C19.5416 173.984 15.4442 172.933 11.6619 170.832C8.08981 168.73 5.25313 165.894 3.15188 162.322C1.05062 158.539 0 154.442 0 150.029C0 145.617 1.05062 141.624 3.15188 138.052C5.25313 134.27 8.08981 131.328 11.6619 129.227C15.4442 127.126 19.5416 126.075 23.9543 126.075C28.3669 126.075 32.3593 127.126 35.9314 129.227C39.7136 131.328 42.6554 134.27 44.7566 138.052C46.8579 141.624 47.9085 145.617 47.9085 150.029C47.9085 154.442 46.8579 158.539 44.7566 162.322C42.6554 165.894 39.7136 168.73 35.9314 170.832C32.3593 172.933 28.3669 173.984 23.9543 173.984Z" fill="white"/>
</svg>
